Groote-Romyn-26.ufo
<glyph name="ampersand" format="2">
  <advance width="854"/>
  <unicode hex="0026"/>
  <outline>
    <contour>
      <point x="237" y="-15" type="curve" smooth="yes"/>
      <point x="309" y="-15"/>
      <point x="393" y="31"/>
      <point x="439" y="95" type="curve" smooth="yes"/>
      <point x="491" y="167" type="line"/>
      <point x="477" y="199" type="line"/>
      <point x="420" y="113" type="line" smooth="yes"/>
      <point x="392" y="72"/>
      <point x="323" y="53"/>
      <point x="276" y="53" type="curve" smooth="yes"/>
      <point x="208" y="53"/>
      <point x="145" y="128"/>
      <point x="145" y="215" type="curve" smooth="yes"/>
      <point x="145" y="374"/>
      <point x="435" y="406"/>
      <point x="435" y="542" type="curve" smooth="yes"/>
      <point x="435" y="615"/>
      <point x="379" y="666"/>
      <point x="301" y="666" type="curve" smooth="yes"/>
      <point x="200" y="666"/>
      <point x="129" y="612"/>
      <point x="129" y="536" type="curve" smooth="yes"/>
      <point x="129" y="496"/>
      <point x="142" y="456"/>
      <point x="176" y="424" type="curve" smooth="yes"/>
      <point x="213" y="390"/>
      <point x="388" y="235"/>
      <point x="405" y="218" type="curve" smooth="yes"/>
      <point x="438" y="185"/>
      <point x="472" y="124"/>
      <point x="497" y="72" type="curve" smooth="yes"/>
      <point x="520" y="24"/>
      <point x="582" y="-10"/>
      <point x="633" y="-10" type="curve" smooth="yes"/>
      <point x="683" y="-10"/>
      <point x="753" y="23"/>
      <point x="803" y="70" type="curve"/>
      <point x="792" y="87" type="line"/>
      <point x="760" y="62"/>
      <point x="711" y="49"/>
      <point x="679" y="49" type="curve" smooth="yes"/>
      <point x="645" y="49"/>
      <point x="603" y="76"/>
      <point x="581" y="115" type="curve" smooth="yes"/>
      <point x="540" y="188"/>
      <point x="499" y="254"/>
      <point x="447" y="302" type="curve" smooth="yes"/>
      <point x="366" y="377"/>
      <point x="303" y="421"/>
      <point x="263" y="459" type="curve" smooth="yes"/>
      <point x="229" y="489"/>
      <point x="200" y="527"/>
      <point x="200" y="556" type="curve" smooth="yes"/>
      <point x="200" y="600"/>
      <point x="236" y="649"/>
      <point x="281" y="649" type="curve" smooth="yes"/>
      <point x="331" y="649"/>
      <point x="366" y="596"/>
      <point x="366" y="535" type="curve" smooth="yes"/>
      <point x="366" y="392"/>
      <point x="51" y="348"/>
      <point x="51" y="176" type="curve" smooth="yes"/>
      <point x="51" y="64"/>
      <point x="120" y="-15"/>
    </contour>
    <contour>
      <point x="491" y="159" type="line"/>
      <point x="624" y="364" type="line" smooth="yes"/>
      <point x="641" y="388"/>
      <point x="693" y="415"/>
      <point x="735" y="415" type="curve" smooth="yes"/>
      <point x="783" y="415" type="line"/>
      <point x="783" y="433" type="line"/>
      <point x="536" y="433" type="line"/>
      <point x="536" y="415" type="line"/>
      <point x="542" y="415"/>
      <point x="557" y="415"/>
      <point x="585" y="415" type="curve" smooth="yes"/>
      <point x="596" y="415"/>
      <point x="603" y="403"/>
      <point x="603" y="394" type="curve" smooth="yes"/>
      <point x="603" y="384"/>
      <point x="593" y="358"/>
      <point x="578" y="338" type="curve" smooth="yes"/>
      <point x="477" y="191" type="line"/>
    </contour>
  </outline>
</glyph>
<glyph name="asterisk" format="2">
  <advance width="762"/>
  <unicode hex="002A"/>
  <outline>
    <contour>
      <point x="371" y="330" type="curve"/>
      <point x="390" y="330" type="line"/>
      <point x="390" y="349"/>
      <point x="443" y="462"/>
      <point x="443" y="504" type="curve" smooth="yes"/>
      <point x="443" y="548"/>
      <point x="415" y="579"/>
      <point x="374" y="579" type="curve" smooth="yes"/>
      <point x="334" y="579"/>
      <point x="305" y="549"/>
      <point x="305" y="507" type="curve" smooth="yes"/>
      <point x="305" y="473"/>
      <point x="371" y="351"/>
    </contour>
    <contour>
      <point x="385" y="366" type="curve" smooth="yes"/>
      <point x="385" y="363"/>
      <point x="379" y="366"/>
      <point x="375" y="366" type="curve"/>
      <point x="375" y="390"/>
      <point x="333" y="479"/>
      <point x="333" y="503" type="curve" smooth="yes"/>
      <point x="333" y="541"/>
      <point x="356" y="552"/>
      <point x="372" y="552" type="curve" smooth="yes"/>
      <point x="392" y="552"/>
      <point x="416" y="541"/>
      <point x="416" y="504" type="curve" smooth="yes"/>
      <point x="416" y="468"/>
      <point x="385" y="390"/>
    </contour>
    <contour>
      <point x="434" y="313" type="curve"/>
      <point x="447" y="300" type="line"/>
      <point x="461" y="314"/>
      <point x="578" y="356"/>
      <point x="608" y="386" type="curve" smooth="yes"/>
      <point x="639" y="417"/>
      <point x="641" y="459"/>
      <point x="612" y="488" type="curve" smooth="yes"/>
      <point x="584" y="516"/>
      <point x="542" y="515"/>
      <point x="512" y="485" type="curve" smooth="yes"/>
      <point x="489" y="462"/>
      <point x="449" y="329"/>
    </contour>
    <contour>
      <point x="470" y="329" type="curve" smooth="yes"/>
      <point x="468" y="327"/>
      <point x="465" y="334"/>
      <point x="463" y="336" type="curve"/>
      <point x="479" y="353"/>
      <point x="512" y="446"/>
      <point x="530" y="463" type="curve" smooth="yes"/>
      <point x="556" y="489"/>
      <point x="580" y="481"/>
      <point x="591" y="470" type="curve" smooth="yes"/>
      <point x="606" y="456"/>
      <point x="615" y="431"/>
      <point x="589" y="405" type="curve" smooth="yes"/>
      <point x="563" y="380"/>
      <point x="486" y="346"/>
    </contour>
    <contour>
      <point x="464" y="254" type="curve"/>
      <point x="464" y="235" type="line"/>
      <point x="483" y="235"/>
      <point x="596" y="182"/>
      <point x="638" y="182" type="curve" smooth="yes"/>
      <point x="682" y="182"/>
      <point x="713" y="210"/>
      <point x="713" y="251" type="curve" smooth="yes"/>
      <point x="713" y="291"/>
      <point x="683" y="320"/>
      <point x="641" y="320" type="curve" smooth="yes"/>
      <point x="607" y="320"/>
      <point x="485" y="254"/>
    </contour>
    <contour>
      <point x="500" y="240" type="curve" smooth="yes"/>
      <point x="497" y="240"/>
      <point x="500" y="246"/>
      <point x="500" y="250" type="curve"/>
      <point x="524" y="250"/>
      <point x="613" y="292"/>
      <point x="637" y="292" type="curve" smooth="yes"/>
      <point x="675" y="292"/>
      <point x="686" y="269"/>
      <point x="686" y="253" type="curve" smooth="yes"/>
      <point x="686" y="233"/>
      <point x="675" y="209"/>
      <point x="638" y="209" type="curve" smooth="yes"/>
      <point x="602" y="209"/>
      <point x="524" y="240"/>
    </contour>
    <contour>
      <point x="447" y="194" type="curve"/>
      <point x="434" y="181" type="line"/>
      <point x="448" y="167"/>
      <point x="490" y="49"/>
      <point x="520" y="19" type="curve" smooth="yes"/>
      <point x="551" y="-12"/>
      <point x="593" y="-14"/>
      <point x="622" y="15" type="curve" smooth="yes"/>
      <point x="650" y="44"/>
      <point x="649" y="85"/>
      <point x="619" y="115" type="curve" smooth="yes"/>
      <point x="596" y="139"/>
      <point x="463" y="178"/>
    </contour>
    <contour>
      <point x="463" y="158" type="curve" smooth="yes"/>
      <point x="461" y="160"/>
      <point x="468" y="162"/>
      <point x="470" y="165" type="curve"/>
      <point x="487" y="148"/>
      <point x="580" y="115"/>
      <point x="597" y="98" type="curve" smooth="yes"/>
      <point x="623" y="71"/>
      <point x="615" y="47"/>
      <point x="604" y="36" type="curve" smooth="yes"/>
      <point x="590" y="22"/>
      <point x="565" y="13"/>
      <point x="539" y="39" type="curve" smooth="yes"/>
      <point x="514" y="64"/>
      <point x="480" y="141"/>
    </contour>
    <contour>
      <point x="391" y="163" type="curve"/>
      <point x="373" y="163" type="line"/>
      <point x="373" y="143"/>
      <point x="319" y="31"/>
      <point x="319" y="-12" type="curve" smooth="yes"/>
      <point x="319" y="-56"/>
      <point x="348" y="-87"/>
      <point x="388" y="-87" type="curve" smooth="yes"/>
      <point x="429" y="-87"/>
      <point x="457" y="-57"/>
      <point x="457" y="-14" type="curve" smooth="yes"/>
      <point x="457" y="19"/>
      <point x="391" y="141"/>
    </contour>
    <contour>
      <point x="377" y="126" type="curve" smooth="yes"/>
      <point x="377" y="129"/>
      <point x="384" y="126"/>
      <point x="387" y="126" type="curve"/>
      <point x="387" y="103"/>
      <point x="429" y="14"/>
      <point x="429" y="-11" type="curve" smooth="yes"/>
      <point x="429" y="-48"/>
      <point x="406" y="-59"/>
      <point x="391" y="-59" type="curve" smooth="yes"/>
      <point x="370" y="-59"/>
      <point x="347" y="-49"/>
      <point x="347" y="-12" type="curve" smooth="yes"/>
      <point x="347" y="24"/>
      <point x="377" y="103"/>
    </contour>
    <contour>
      <point x="329" y="179" type="curve"/>
      <point x="316" y="192" type="line"/>
      <point x="302" y="178"/>
      <point x="184" y="137"/>
      <point x="154" y="107" type="curve" smooth="yes"/>
      <point x="123" y="75"/>
      <point x="121" y="33"/>
      <point x="150" y="5" type="curve" smooth="yes"/>
      <point x="179" y="-24"/>
      <point x="220" y="-23"/>
      <point x="250" y="7" type="curve" smooth="yes"/>
      <point x="274" y="31"/>
      <point x="313" y="164"/>
    </contour>
    <contour>
      <point x="293" y="163" type="curve" smooth="yes"/>
      <point x="295" y="165"/>
      <point x="297" y="159"/>
      <point x="300" y="156" type="curve"/>
      <point x="283" y="139"/>
      <point x="250" y="47"/>
      <point x="233" y="30" type="curve" smooth="yes"/>
      <point x="206" y="3"/>
      <point x="182" y="12"/>
      <point x="171" y="22" type="curve" smooth="yes"/>
      <point x="157" y="37"/>
      <point x="148" y="61"/>
      <point x="174" y="87" type="curve" smooth="yes"/>
      <point x="199" y="113"/>
      <point x="276" y="147"/>
    </contour>
    <contour>
      <point x="299" y="239" type="curve"/>
      <point x="299" y="257" type="line"/>
      <point x="279" y="257"/>
      <point x="167" y="311"/>
      <point x="124" y="311" type="curve" smooth="yes"/>
      <point x="80" y="311"/>
      <point x="49" y="282"/>
      <point x="49" y="242" type="curve" smooth="yes"/>
      <point x="49" y="201"/>
      <point x="79" y="173"/>
      <point x="122" y="173" type="curve" smooth="yes"/>
      <point x="155" y="173"/>
      <point x="277" y="239"/>
    </contour>
    <contour>
      <point x="262" y="253" type="curve" smooth="yes"/>
      <point x="265" y="253"/>
      <point x="262" y="246"/>
      <point x="262" y="243" type="curve"/>
      <point x="239" y="243"/>
      <point x="150" y="201"/>
      <point x="125" y="201" type="curve" smooth="yes"/>
      <point x="88" y="201"/>
      <point x="77" y="224"/>
      <point x="77" y="239" type="curve" smooth="yes"/>
      <point x="77" y="260"/>
      <point x="87" y="283"/>
      <point x="124" y="283" type="curve" smooth="yes"/>
      <point x="160" y="283"/>
      <point x="239" y="253"/>
    </contour>
    <contour>
      <point x="315" y="299" type="curve"/>
      <point x="328" y="312" type="line"/>
      <point x="314" y="326"/>
      <point x="273" y="443"/>
      <point x="243" y="473" type="curve" smooth="yes"/>
      <point x="211" y="504"/>
      <point x="169" y="506"/>
      <point x="141" y="477" type="curve" smooth="yes"/>
      <point x="112" y="449"/>
      <point x="113" y="407"/>
      <point x="143" y="377" type="curve" smooth="yes"/>
      <point x="167" y="354"/>
      <point x="300" y="314"/>
    </contour>
    <contour>
      <point x="299" y="335" type="curve" smooth="yes"/>
      <point x="301" y="333"/>
      <point x="295" y="330"/>
      <point x="292" y="328" type="curve"/>
      <point x="275" y="344"/>
      <point x="183" y="377"/>
      <point x="166" y="395" type="curve" smooth="yes"/>
      <point x="139" y="421"/>
      <point x="148" y="445"/>
      <point x="158" y="456" type="curve" smooth="yes"/>
      <point x="173" y="471"/>
      <point x="197" y="480"/>
      <point x="223" y="454" type="curve" smooth="yes"/>
      <point x="249" y="428"/>
      <point x="283" y="351"/>
    </contour>
  </outline>
</glyph>
<glyph name="comma" format="2">
  <advance width="266"/>
  <unicode hex="002C"/>
  <outline>
    <contour>
      <point x="61" y="-133" type="curve"/>
      <point x="73" y="-161" type="line"/>
      <point x="151" y="-129"/>
      <point x="205" y="-54"/>
      <point x="205" y="20" type="curve" smooth="yes"/>
      <point x="205" y="68"/>
      <point x="168" y="106"/>
      <point x="117" y="106" type="curve" smooth="yes"/>
      <point x="79" y="106"/>
      <point x="52" y="81"/>
      <point x="52" y="51" type="curve" smooth="yes"/>
      <point x="52" y="27"/>
      <point x="67" y="6"/>
      <point x="88" y="6" type="curve" smooth="yes"/>
      <point x="106" y="6"/>
      <point x="109" y="13"/>
      <point x="125" y="13" type="curve" smooth="yes"/>
      <point x="139" y="13"/>
      <point x="149" y="-4"/>
      <point x="149" y="-27" type="curve" smooth="yes"/>
      <point x="149" y="-79"/>
      <point x="112" y="-120"/>
    </contour>
  </outline>
</glyph>
<glyph name="hyphen" format="2">
  <advance width="354"/>
  <unicode hex="002D"/>
  <outline>
    <contour>
      <point x="55" y="215" type="line"/>
      <point x="58" y="164" type="line"/>
      <point x="296" y="168" type="line"/>
      <point x="299" y="250" type="line"/>
      <point x="252" y="250" type="line"/>
      <point x="93" y="227" type="line"/>
    </contour>
  </outline>
</glyph>
<glyph name="period" format="2">
  <advance width="248"/>
  <unicode hex="002E"/>
  <outline>
    <contour>
      <point x="124" y="0" type="curve" smooth="yes"/>
      <point x="159" y="0"/>
      <point x="187" y="28"/>
      <point x="187" y="63" type="curve" smooth="yes"/>
      <point x="187" y="98"/>
      <point x="159" y="126"/>
      <point x="124" y="126" type="curve" smooth="yes"/>
      <point x="89" y="126"/>
      <point x="61" y="98"/>
      <point x="61" y="63" type="curve" smooth="yes"/>
      <point x="61" y="28"/>
      <point x="89" y="0"/>
    </contour>
  </outline>
</glyph>
<glyph name="colon" format="2">
  <advance width="262"/>
  <unicode hex="003A"/>
  <outline>
    <contour>
      <point x="140" y="218" type="curve" smooth="yes"/>
      <point x="174" y="218"/>
      <point x="201" y="238"/>
      <point x="201" y="262" type="curve" smooth="yes"/>
      <point x="201" y="287"/>
      <point x="174" y="306"/>
      <point x="140" y="306" type="curve" smooth="yes"/>
      <point x="107" y="306"/>
      <point x="79" y="287"/>
      <point x="79" y="262" type="curve" smooth="yes"/>
      <point x="79" y="238"/>
      <point x="107" y="218"/>
    </contour>
    <contour>
      <point x="122" y="8" type="curve" smooth="yes"/>
      <point x="155" y="8"/>
      <point x="183" y="27"/>
      <point x="183" y="52" type="curve" smooth="yes"/>
      <point x="183" y="76"/>
      <point x="155" y="96"/>
      <point x="122" y="96" type="curve" smooth="yes"/>
      <point x="88" y="96"/>
      <point x="61" y="76"/>
      <point x="61" y="52" type="curve" smooth="yes"/>
      <point x="61" y="27"/>
      <point x="88" y="8"/>
    </contour>
  </outline>
</glyph>
<glyph name="semicolon" format="2">
  <advance width="279"/>
  <unicode hex="003B"/>
  <outline>
    <contour>
      <point x="70" y="-127" type="curve"/>
      <point x="82" y="-156" type="line"/>
      <point x="154" y="-126"/>
      <point x="205" y="-51"/>
      <point x="205" y="26" type="curve" smooth="yes"/>
      <point x="205" y="71"/>
      <point x="172" y="103"/>
      <point x="126" y="103" type="curve" smooth="yes"/>
      <point x="88" y="103"/>
      <point x="61" y="84"/>
      <point x="61" y="57" type="curve" smooth="yes"/>
      <point x="61" y="30"/>
      <point x="76" y="12"/>
      <point x="97" y="12" type="curve" smooth="yes"/>
      <point x="116" y="12"/>
      <point x="118" y="19"/>
      <point x="134" y="19" type="curve" smooth="yes"/>
      <point x="148" y="19"/>
      <point x="158" y="2"/>
      <point x="158" y="-21" type="curve" smooth="yes"/>
      <point x="158" y="-70"/>
      <point x="121" y="-114"/>
    </contour>
    <contour>
      <point x="163" y="208" type="curve" smooth="yes"/>
      <point x="193" y="208"/>
      <point x="218" y="227"/>
      <point x="218" y="250" type="curve" smooth="yes"/>
      <point x="218" y="273"/>
      <point x="193" y="292"/>
      <point x="163" y="292" type="curve" smooth="yes"/>
      <point x="133" y="292"/>
      <point x="109" y="273"/>
      <point x="109" y="250" type="curve" smooth="yes"/>
      <point x="109" y="227"/>
      <point x="133" y="208"/>
    </contour>
  </outline>
</glyph>
<glyph name="A" format="2">
  <advance width="781"/>
  <unicode hex="0041"/>
  <anchor x="391" y="700" name="top"/>
  <anchor x="391" y="0" name="bottom"/>
  <anchor x="703" y="10" name="ogonek"/>
  <outline>
    <contour>
      <point x="465" y="-2" type="line"/>
      <point x="766" y="0" type="line"/>
      <point x="766" y="18" type="line"/>
      <point x="760" y="18" type="line" smooth="yes"/>
      <point x="727" y="18"/>
      <point x="681" y="62"/>
      <point x="659" y="124" type="curve" smooth="yes"/>
      <point x="465" y="679" type="line"/>
      <point x="455" y="719" type="line"/>
      <point x="444" y="728" type="line"/>
      <point x="423" y="716"/>
      <point x="378" y="704"/>
      <point x="336" y="700" type="curve"/>
      <point x="336" y="666" type="line"/>
      <point x="368" y="659" type="line"/>
      <point x="464" y="388"/>
      <point x="547" y="142"/>
      <point x="568" y="79" type="curve" smooth="yes"/>
      <point x="579" y="42"/>
      <point x="562" y="16"/>
      <point x="528" y="16" type="curve" smooth="yes"/>
      <point x="465" y="16" type="line"/>
    </contour>
    <contour>
      <point x="15" y="1" type="line"/>
      <point x="314" y="1" type="line"/>
      <point x="314" y="18" type="line"/>
      <point x="307" y="18"/>
      <point x="312" y="19"/>
      <point x="294" y="19" type="curve" smooth="yes"/>
      <point x="241" y="19"/>
      <point x="210" y="49"/>
      <point x="219" y="91" type="curve"/>
      <point x="382" y="660" type="line"/>
      <point x="339" y="686" type="line"/>
      <point x="270" y="480"/>
      <point x="198" y="230"/>
      <point x="165" y="95" type="curve" smooth="yes"/>
      <point x="154" y="50"/>
      <point x="116" y="19"/>
      <point x="73" y="19" type="curve" smooth="yes"/>
      <point x="15" y="19" type="line"/>
    </contour>
    <contour>
      <point x="250" y="288" type="line"/>
      <point x="562" y="288" type="line"/>
      <point x="562" y="343" type="line"/>
      <point x="250" y="343" type="line"/>
    </contour>
  </outline>
</glyph>
<glyph name="B" format="2">
  <advance width="669"/>
  <unicode hex="0042"/>
  <anchor x="335" y="700" name="top"/>
  <anchor x="335" y="0" name="bottom"/>
  <anchor x="167" y="175" name="center"/>
  <outline>
    <contour>
      <point x="27" y="0" type="line"/>
      <point x="69" y="0"/>
      <point x="105" y="2"/>
      <point x="155" y="2" type="curve" smooth="yes"/>
      <point x="207" y="2"/>
      <point x="332" y="0"/>
      <point x="384" y="0" type="curve" smooth="yes"/>
      <point x="520" y="0"/>
      <point x="617" y="78"/>
      <point x="617" y="188" type="curve" smooth="yes"/>
      <point x="617" y="299"/>
      <point x="502" y="372"/>
      <point x="340" y="372" type="curve" smooth="yes"/>
      <point x="187" y="372" type="line"/>
      <point x="187" y="341" type="line"/>
      <point x="238" y="341"/>
      <point x="297" y="341"/>
      <point x="340" y="341" type="curve" smooth="yes"/>
      <point x="426" y="341"/>
      <point x="487" y="273"/>
      <point x="487" y="185" type="curve" smooth="yes"/>
      <point x="487" y="95"/>
      <point x="431" y="21"/>
      <point x="353" y="21" type="curve" smooth="yes"/>
      <point x="279" y="21"/>
      <point x="224" y="47"/>
      <point x="224" y="84" type="curve" smooth="yes"/>
      <point x="224" y="679" type="line"/>
      <point x="253" y="679"/>
      <point x="299" y="679"/>
      <point x="330" y="679" type="curve" smooth="yes"/>
      <point x="404" y="679"/>
      <point x="456" y="609"/>
      <point x="456" y="523" type="curve" smooth="yes"/>
      <point x="456" y="437"/>
      <point x="389" y="372"/>
      <point x="294" y="372" type="curve"/>
      <point x="294" y="349" type="line"/>
      <point x="458" y="349"/>
      <point x="574" y="426"/>
      <point x="574" y="541" type="curve" smooth="yes"/>
      <point x="574" y="629"/>
      <point x="475" y="694"/>
      <point x="336" y="699" type="curve"/>
      <point x="340" y="698"/>
      <point x="271" y="698"/>
      <point x="171" y="698" type="curve" smooth="yes"/>
      <point x="143" y="698"/>
      <point x="36" y="700"/>
      <point x="19" y="700" type="curve"/>
      <point x="19" y="682" type="line"/>
      <point x="28" y="682"/>
      <point x="34" y="682"/>
      <point x="45" y="682" type="curve" smooth="yes"/>
      <point x="91" y="682"/>
      <point x="124" y="647"/>
      <point x="124" y="611" type="curve" smooth="yes"/>
      <point x="124" y="562"/>
      <point x="124" y="104"/>
      <point x="124" y="71" type="curve" smooth="yes"/>
      <point x="124" y="46"/>
      <point x="99" y="18"/>
      <point x="64" y="18" type="curve" smooth="yes"/>
      <point x="27" y="18" type="line"/>
    </contour>
  </outline>
</glyph>
<glyph name="C" format="2">
  <advance width="810"/>
  <unicode hex="0043"/>
  <anchor x="405" y="700" name="top"/>
  <anchor x="405" y="0" name="bottom"/>
  <outline>
    <contour>
      <point x="445" y="-8" type="curve" smooth="yes"/>
      <point x="562" y="-8"/>
      <point x="687" y="44"/>
      <point x="746" y="118" type="curve"/>
      <point x="749" y="239" type="line"/>
      <point x="726" y="241" type="line"/>
      <point x="713" y="114"/>
      <point x="611" y="24"/>
      <point x="480" y="24" type="curve" smooth="yes"/>
      <point x="314" y="24"/>
      <point x="187" y="192"/>
      <point x="187" y="415" type="curve" smooth="yes"/>
      <point x="187" y="574"/>
      <point x="294" y="697"/>
      <point x="430" y="697" type="curve" smooth="yes"/>
      <point x="557" y="697"/>
      <point x="664" y="634"/>
      <point x="687" y="546" type="curve"/>
      <point x="711" y="546" type="line"/>
      <point x="701" y="707" type="line"/>
      <point x="674" y="707" type="line"/>
      <point x="669" y="689"/>
      <point x="658" y="677"/>
      <point x="648" y="677" type="curve"/>
      <point x="603" y="705"/>
      <point x="517" y="725"/>
      <point x="441" y="725" type="curve" smooth="yes"/>
      <point x="218" y="725"/>
      <point x="61" y="573"/>
      <point x="61" y="359" type="curve" smooth="yes"/>
      <point x="61" y="144"/>
      <point x="220" y="-8"/>
    </contour>
  </outline>
</glyph>
<glyph name="D" format="2">
  <advance width="811"/>
  <unicode hex="0044"/>
  <anchor x="406" y="700" name="top"/>
  <anchor x="406" y="0" name="bottom"/>
  <anchor x="203" y="350" name="center"/>
  <outline>
    <contour>
      <point x="-14" y="-3" type="line"/>
      <point x="48" y="-1"/>
      <point x="125" y="0"/>
      <point x="170" y="0" type="curve" smooth="yes"/>
      <point x="228" y="0"/>
      <point x="300" y="-3"/>
      <point x="367" y="-3" type="curve" smooth="yes"/>
      <point x="591" y="-3"/>
      <point x="750" y="160"/>
      <point x="750" y="390" type="curve" smooth="yes"/>
      <point x="750" y="573"/>
      <point x="605" y="702"/>
      <point x="399" y="702" type="curve" smooth="yes"/>
      <point x="337" y="702"/>
      <point x="195" y="700"/>
      <point x="165" y="700" type="curve" smooth="yes"/>
      <point x="135" y="700"/>
      <point x="83" y="702"/>
      <point x="69" y="702" type="curve" smooth="yes"/>
      <point x="-4" y="702" type="line"/>
      <point x="-4" y="682" type="line"/>
      <point x="9" y="682"/>
      <point x="9" y="682"/>
      <point x="36" y="682" type="curve" smooth="yes"/>
      <point x="87" y="682"/>
      <point x="124" y="636"/>
      <point x="124" y="586" type="curve" smooth="yes"/>
      <point x="124" y="519"/>
      <point x="124" y="163"/>
      <point x="124" y="132" type="curve" smooth="yes"/>
      <point x="124" y="71"/>
      <point x="81" y="17"/>
      <point x="22" y="17" type="curve" smooth="yes"/>
      <point x="-14" y="17" type="line"/>
    </contour>
    <contour>
      <point x="374" y="22" type="curve" smooth="yes"/>
      <point x="287" y="22"/>
      <point x="224" y="63"/>
      <point x="224" y="107" type="curve" smooth="yes"/>
      <point x="224" y="676" type="line"/>
      <point x="269" y="676"/>
      <point x="331" y="676"/>
      <point x="367" y="676" type="curve" smooth="yes"/>
      <point x="510" y="676"/>
      <point x="622" y="546"/>
      <point x="622" y="368" type="curve" smooth="yes"/>
      <point x="622" y="168"/>
      <point x="513" y="22"/>
    </contour>
  </outline>
</glyph>
<glyph name="E" format="2">
  <advance width="686"/>
  <unicode hex="0045"/>
  <anchor x="343" y="700" name="top"/>
  <anchor x="343" y="0" name="bottom"/>
  <anchor x="617" y="10" name="ogonek"/>
  <anchor x="20" y="700" name="topleft"/>
  <outline>
    <contour>
      <point x="319" y="-1" type="curve" smooth="yes"/>
      <point x="565" y="-1" type="line"/>
      <point x="644" y="143" type="line"/>
      <point x="629" y="158" type="line"/>
      <point x="583" y="82"/>
      <point x="509" y="24"/>
      <point x="464" y="24" type="curve" smooth="yes"/>
      <point x="444" y="24"/>
      <point x="296" y="24"/>
      <point x="270" y="24" type="curve" smooth="yes"/>
      <point x="242" y="24"/>
      <point x="224" y="46"/>
      <point x="224" y="88" type="curve" smooth="yes"/>
      <point x="224" y="202"/>
      <point x="224" y="609"/>
      <point x="224" y="630" type="curve" smooth="yes"/>
      <point x="224" y="656"/>
      <point x="252" y="675"/>
      <point x="294" y="675" type="curve" smooth="yes"/>
      <point x="314" y="675"/>
      <point x="419" y="675"/>
      <point x="432" y="675" type="curve" smooth="yes"/>
      <point x="493" y="675"/>
      <point x="547" y="625"/>
      <point x="547" y="561" type="curve"/>
      <point x="565" y="561" type="line"/>
      <point x="565" y="700" type="line"/>
      <point x="481" y="700"/>
      <point x="334" y="700"/>
      <point x="314" y="700" type="curve" smooth="yes"/>
      <point x="294" y="700"/>
      <point x="200" y="697"/>
      <point x="185" y="697" type="curve" smooth="yes"/>
      <point x="170" y="697"/>
      <point x="73" y="700"/>
      <point x="50" y="700" type="curve"/>
      <point x="50" y="677" type="line"/>
      <point x="95" y="677"/>
      <point x="124" y="653"/>
      <point x="124" y="619" type="curve" smooth="yes"/>
      <point x="124" y="595"/>
      <point x="124" y="181"/>
      <point x="124" y="137" type="curve" smooth="yes"/>
      <point x="124" y="76"/>
      <point x="104" y="23"/>
      <point x="73" y="23" type="curve" smooth="yes"/>
      <point x="38" y="23" type="line"/>
      <point x="38" y="0" type="line"/>
      <point x="69" y="0"/>
      <point x="130" y="0"/>
      <point x="174" y="0" type="curve" smooth="yes"/>
      <point x="218" y="0"/>
      <point x="282" y="-1"/>
    </contour>
    <contour>
      <point x="469" y="260" type="curve"/>
      <point x="491" y="260" type="line"/>
      <point x="487" y="327"/>
      <point x="487" y="395"/>
      <point x="491" y="462" type="curve"/>
      <point x="468" y="462" type="line"/>
      <point x="468" y="403"/>
      <point x="444" y="369"/>
      <point x="405" y="369" type="curve" smooth="yes"/>
      <point x="196" y="369" type="line"/>
      <point x="195" y="349" type="line"/>
      <point x="258" y="349"/>
      <point x="380" y="349"/>
      <point x="405" y="349" type="curve" smooth="yes"/>
      <point x="445" y="349"/>
      <point x="469" y="295"/>
    </contour>
  </outline>
</glyph>
<glyph name="F" format="2">
  <advance width="580"/>
  <unicode hex="0046"/>
  <anchor x="290" y="700" name="top"/>
  <anchor x="290" y="0" name="bottom"/>
  <outline>
    <contour>
      <point x="317" y="-1" type="curve"/>
      <point x="317" y="17" type="line"/>
      <point x="295" y="17"/>
      <point x="278" y="17"/>
      <point x="270" y="17" type="curve" smooth="yes"/>
      <point x="242" y="17"/>
      <point x="224" y="49"/>
      <point x="224" y="81" type="curve" smooth="yes"/>
      <point x="224" y="195"/>
      <point x="224" y="609"/>
      <point x="224" y="630" type="curve" smooth="yes"/>
      <point x="224" y="656"/>
      <point x="252" y="675"/>
      <point x="294" y="675" type="curve" smooth="yes"/>
      <point x="314" y="675"/>
      <point x="419" y="675"/>
      <point x="432" y="675" type="curve" smooth="yes"/>
      <point x="493" y="675"/>
      <point x="537" y="625"/>
      <point x="547" y="561" type="curve"/>
      <point x="565" y="561" type="line"/>
      <point x="555" y="700" type="line"/>
      <point x="471" y="700"/>
      <point x="334" y="700"/>
      <point x="314" y="700" type="curve" smooth="yes"/>
      <point x="294" y="700"/>
      <point x="200" y="697"/>
      <point x="185" y="697" type="curve" smooth="yes"/>
      <point x="170" y="697"/>
      <point x="73" y="700"/>
      <point x="50" y="700" type="curve"/>
      <point x="50" y="677" type="line"/>
      <point x="95" y="677"/>
      <point x="124" y="653"/>
      <point x="124" y="619" type="curve" smooth="yes"/>
      <point x="124" y="595"/>
      <point x="124" y="181"/>
      <point x="124" y="137" type="curve" smooth="yes"/>
      <point x="124" y="69"/>
      <point x="104" y="16"/>
      <point x="73" y="16" type="curve" smooth="yes"/>
      <point x="38" y="16" type="line"/>
      <point x="38" y="0" type="line"/>
      <point x="69" y="0"/>
      <point x="130" y="0"/>
      <point x="174" y="0" type="curve" smooth="yes"/>
      <point x="217" y="0"/>
      <point x="280" y="-1"/>
    </contour>
    <contour>
      <point x="449" y="240" type="curve"/>
      <point x="471" y="240" type="line"/>
      <point x="467" y="307"/>
      <point x="467" y="415"/>
      <point x="471" y="482" type="curve"/>
      <point x="448" y="482" type="line"/>
      <point x="448" y="423"/>
      <point x="424" y="369"/>
      <point x="385" y="369" type="curve" smooth="yes"/>
      <point x="196" y="369" type="line"/>
      <point x="195" y="349" type="line"/>
      <point x="258" y="349"/>
      <point x="360" y="349"/>
      <point x="385" y="349" type="curve" smooth="yes"/>
      <point x="425" y="349"/>
      <point x="449" y="275"/>
    </contour>
  </outline>
</glyph>
<glyph name="G" format="2">
  <advance width="853"/>
  <unicode hex="0047"/>
  <anchor x="427" y="700" name="top"/>
  <anchor x="427" y="0" name="bottom"/>
  <outline>
    <contour>
      <point x="473" y="-20" type="curve" smooth="yes"/>
      <point x="551" y="-20"/>
      <point x="665" y="13"/>
      <point x="748" y="59" type="curve"/>
      <point x="748" y="73" type="line"/>
      <point x="737" y="79"/>
      <point x="729" y="89"/>
      <point x="729" y="96" type="curve" smooth="yes"/>
      <point x="729" y="109"/>
      <point x="729" y="199"/>
      <point x="729" y="222" type="curve" smooth="yes"/>
      <point x="729" y="252"/>
      <point x="748" y="274"/>
      <point x="775" y="274" type="curve" smooth="yes"/>
      <point x="799" y="274" type="line"/>
      <point x="799" y="299" type="line"/>
      <point x="484" y="299" type="line"/>
      <point x="484" y="273" type="line"/>
      <point x="507" y="273"/>
      <point x="578" y="273"/>
      <point x="584" y="273" type="curve" smooth="yes"/>
      <point x="609" y="273"/>
      <point x="627" y="234"/>
      <point x="627" y="180" type="curve" smooth="yes"/>
      <point x="627" y="80"/>
      <point x="561" y="0"/>
      <point x="482" y="0" type="curve" smooth="yes"/>
      <point x="326" y="0"/>
      <point x="196" y="150"/>
      <point x="196" y="347" type="curve" smooth="yes"/>
      <point x="196" y="540"/>
      <point x="317" y="686"/>
      <point x="489" y="686" type="curve" smooth="yes"/>
      <point x="597" y="686"/>
      <point x="692" y="616"/>
      <point x="720" y="517" type="curve"/>
      <point x="741" y="517" type="line"/>
      <point x="741" y="694" type="line"/>
      <point x="673" y="694"/>
      <point x="563" y="712"/>
      <point x="471" y="712" type="curve" smooth="yes"/>
      <point x="231" y="712"/>
      <point x="61" y="561"/>
      <point x="61" y="348" type="curve" smooth="yes"/>
      <point x="61" y="132"/>
      <point x="232" y="-20"/>
    </contour>
  </outline>
</glyph>
<glyph name="H" format="2">
  <advance width="856"/>
  <unicode hex="0048"/>
  <anchor x="428" y="700" name="top"/>
  <anchor x="428" y="0" name="bottom"/>
  <anchor x="428" y="525" name="center"/>
  <anchor x="20" y="700" name="topleft"/>
  <outline>
    <contour>
      <point x="514" y="0" type="line"/>
      <point x="848" y="0" type="line"/>
      <point x="848" y="18" type="line"/>
      <point x="842" y="18"/>
      <point x="837" y="18"/>
      <point x="829" y="18" type="curve" smooth="yes"/>
      <point x="780" y="18"/>
      <point x="732" y="53"/>
      <point x="732" y="112" type="curve" smooth="yes"/>
      <point x="732" y="137"/>
      <point x="732" y="581"/>
      <point x="732" y="605" type="curve" smooth="yes"/>
      <point x="732" y="654"/>
      <point x="766" y="682"/>
      <point x="795" y="682" type="curve" smooth="yes"/>
      <point x="823" y="682" type="line"/>
      <point x="823" y="700" type="line"/>
      <point x="518" y="700" type="line"/>
      <point x="518" y="682" type="line"/>
      <point x="529" y="682"/>
      <point x="538" y="682"/>
      <point x="551" y="682" type="curve" smooth="yes"/>
      <point x="591" y="682"/>
      <point x="632" y="662"/>
      <point x="632" y="624" type="curve" smooth="yes"/>
      <point x="632" y="601"/>
      <point x="632" y="146"/>
      <point x="632" y="125" type="curve" smooth="yes"/>
      <point x="632" y="58"/>
      <point x="592" y="18"/>
      <point x="554" y="18" type="curve" smooth="yes"/>
      <point x="514" y="18" type="line"/>
    </contour>
    <contour>
      <point x="22" y="0" type="line"/>
      <point x="345" y="0" type="line"/>
      <point x="345" y="18" type="line"/>
      <point x="338" y="18"/>
      <point x="338" y="18"/>
      <point x="324" y="18" type="curve" smooth="yes"/>
      <point x="273" y="18"/>
      <point x="224" y="51"/>
      <point x="224" y="108" type="curve" smooth="yes"/>
      <point x="224" y="138"/>
      <point x="224" y="591"/>
      <point x="224" y="612" type="curve" smooth="yes"/>
      <point x="224" y="657"/>
      <point x="252" y="682"/>
      <point x="274" y="682" type="curve" smooth="yes"/>
      <point x="324" y="682" type="line"/>
      <point x="324" y="700" type="line"/>
      <point x="35" y="700" type="line"/>
      <point x="35" y="682" type="line"/>
      <point x="43" y="682"/>
      <point x="50" y="682"/>
      <point x="60" y="682" type="curve" smooth="yes"/>
      <point x="88" y="682"/>
      <point x="124" y="679"/>
      <point x="124" y="659" type="curve" smooth="yes"/>
      <point x="124" y="605"/>
      <point x="124" y="164"/>
      <point x="124" y="132" type="curve" smooth="yes"/>
      <point x="124" y="61"/>
      <point x="87" y="18"/>
      <point x="61" y="18" type="curve" smooth="yes"/>
      <point x="22" y="18" type="line"/>
    </contour>
    <contour>
      <point x="214" y="345" type="line"/>
      <point x="677" y="345" type="line"/>
      <point x="677" y="370" type="line"/>
      <point x="214" y="370" type="line"/>
    </contour>
  </outline>
</glyph>
<glyph name="I" format="2">
  <advance width="348"/>
  <unicode hex="0049"/>
  <anchor x="174" y="700" name="top"/>
  <anchor x="174" y="0" name="bottom"/>
  <anchor x="313" y="10" name="ogonek"/>
  <anchor x="20" y="700" name="topleft"/>
  <outline>
    <contour>
      <point x="32" y="0" type="line"/>
      <point x="295" y="0" type="line"/>
      <point x="295" y="18" type="line"/>
      <point x="288" y="18"/>
      <point x="278" y="18"/>
      <point x="264" y="18" type="curve" smooth="yes"/>
      <point x="242" y="18"/>
      <point x="224" y="61"/>
      <point x="224" y="108" type="curve" smooth="yes"/>
      <point x="224" y="138"/>
      <point x="224" y="591"/>
      <point x="224" y="612" type="curve" smooth="yes"/>
      <point x="224" y="657"/>
      <point x="246" y="682"/>
      <point x="274" y="682" type="curve" smooth="yes"/>
      <point x="317" y="682" type="line"/>
      <point x="317" y="700" type="line"/>
      <point x="30" y="700" type="line"/>
      <point x="30" y="682" type="line"/>
      <point x="38" y="682"/>
      <point x="45" y="682"/>
      <point x="55" y="682" type="curve" smooth="yes"/>
      <point x="94" y="682"/>
      <point x="124" y="672"/>
      <point x="124" y="659" type="curve" smooth="yes"/>
      <point x="124" y="605"/>
      <point x="124" y="164"/>
      <point x="124" y="132" type="curve" smooth="yes"/>
      <point x="124" y="71"/>
      <point x="92" y="18"/>
      <point x="51" y="18" type="curve" smooth="yes"/>
      <point x="32" y="18" type="line"/>
    </contour>
  </outline>
</glyph>
<glyph name="J" format="2">
  <advance width="330"/>
  <unicode hex="004A"/>
  <anchor x="165" y="700" name="top"/>
  <anchor x="165" y="0" name="bottom"/>
  <outline>
    <contour>
      <point x="43" y="-373" type="curve" smooth="yes"/>
      <point x="150" y="-373"/>
      <point x="224" y="-294"/>
      <point x="224" y="-183" type="curve" smooth="yes"/>
      <point x="224" y="-92"/>
      <point x="224" y="570"/>
      <point x="224" y="611" type="curve" smooth="yes"/>
      <point x="224" y="649"/>
      <point x="262" y="684"/>
      <point x="315" y="682" type="curve" smooth="yes"/>
      <point x="344" y="681" type="line"/>
      <point x="344" y="700" type="line"/>
      <point x="35" y="700" type="line"/>
      <point x="35" y="681" type="line"/>
      <point x="44" y="681"/>
      <point x="51" y="682"/>
      <point x="62" y="682" type="curve" smooth="yes"/>
      <point x="98" y="682"/>
      <point x="124" y="654"/>
      <point x="124" y="628" type="curve" smooth="yes"/>
      <point x="124" y="591"/>
      <point x="124" y="-227"/>
      <point x="124" y="-264" type="curve" smooth="yes"/>
      <point x="124" y="-316"/>
      <point x="92" y="-352"/>
      <point x="48" y="-352" type="curve" smooth="yes"/>
      <point x="-2" y="-352"/>
      <point x="-37" y="-330"/>
      <point x="-37" y="-298" type="curve" smooth="yes"/>
      <point x="-37" y="-272"/>
      <point x="-23" y="-256"/>
      <point x="-23" y="-239" type="curve" smooth="yes"/>
      <point x="-23" y="-227"/>
      <point x="-40" y="-219"/>
      <point x="-64" y="-219" type="curve" smooth="yes"/>
      <point x="-92" y="-219"/>
      <point x="-111" y="-249"/>
      <point x="-111" y="-292" type="curve" smooth="yes"/>
      <point x="-111" y="-339"/>
      <point x="-47" y="-373"/>
    </contour>
  </outline>
</glyph>
<glyph name="K" format="2">
  <advance width="742"/>
  <unicode hex="004B"/>
  <anchor x="371" y="700" name="top"/>
  <anchor x="371" y="0" name="bottom"/>
  <outline>
    <contour>
      <point x="585" y="0" type="curve" smooth="yes"/>
      <point x="736" y="0" type="line"/>
      <point x="736" y="18" type="line"/>
      <point x="729" y="18" type="line" smooth="yes"/>
      <point x="701" y="18"/>
      <point x="665" y="56"/>
      <point x="624" y="99" type="curve" smooth="yes"/>
      <point x="315" y="420" type="line"/>
      <point x="396" y="499"/>
      <point x="480" y="567"/>
      <point x="496" y="589" type="curve" smooth="yes"/>
      <point x="520" y="620"/>
      <point x="611" y="656"/>
      <point x="618" y="656" type="curve" smooth="yes"/>
      <point x="665" y="656" type="line"/>
      <point x="665" y="692" type="line"/>
      <point x="400" y="692" type="line"/>
      <point x="400" y="658" type="line"/>
      <point x="428" y="658" type="line"/>
      <point x="400" y="658"/>
      <point x="475" y="631"/>
      <point x="445" y="589" type="curve"/>
      <point x="224" y="358" type="line"/>
      <point x="224" y="468"/>
      <point x="225" y="575"/>
      <point x="225" y="594" type="curve" smooth="yes"/>
      <point x="225" y="640"/>
      <point x="246" y="682"/>
      <point x="272" y="682" type="curve" smooth="yes"/>
      <point x="306" y="682" type="line"/>
      <point x="306" y="700" type="line"/>
      <point x="54" y="700" type="line"/>
      <point x="54" y="682" type="line"/>
      <point x="82" y="682" type="line" smooth="yes"/>
      <point x="105" y="682"/>
      <point x="124" y="665"/>
      <point x="124" y="630" type="curve" smooth="yes"/>
      <point x="124" y="83" type="line" smooth="yes"/>
      <point x="124" y="51"/>
      <point x="106" y="18"/>
      <point x="85" y="18" type="curve" smooth="yes"/>
      <point x="69" y="18" type="line"/>
      <point x="69" y="0" type="line"/>
      <point x="321" y="0" type="line"/>
      <point x="321" y="18" type="line"/>
      <point x="290" y="18" type="line" smooth="yes"/>
      <point x="252" y="18"/>
      <point x="225" y="52"/>
      <point x="225" y="87" type="curve" smooth="yes"/>
      <point x="223" y="328" type="line"/>
      <point x="238" y="343" type="line"/>
      <point x="530" y="36" type="line" smooth="yes"/>
      <point x="549" y="15"/>
      <point x="569" y="0"/>
    </contour>
  </outline>
</glyph>
<glyph name="L" format="2">
  <advance width="703"/>
  <unicode hex="004C"/>
  <anchor x="352" y="700" name="top"/>
  <anchor x="352" y="0" name="bottom"/>
  <anchor x="352" y="350" name="center"/>
  <anchor x="683" y="700" name="topright"/>
  <outline>
    <contour>
      <point x="13" y="25" type="curve"/>
      <point x="13" y="0" type="line"/>
      <point x="602" y="0" type="line"/>
      <point x="670" y="162" type="line"/>
      <point x="648" y="169" type="line"/>
      <point x="617" y="91"/>
      <point x="544" y="25"/>
      <point x="484" y="25" type="curve" smooth="yes"/>
      <point x="415" y="25"/>
      <point x="321" y="25"/>
      <point x="298" y="25" type="curve" smooth="yes"/>
      <point x="258" y="25"/>
      <point x="224" y="74"/>
      <point x="224" y="130" type="curve" smooth="yes"/>
      <point x="224" y="179"/>
      <point x="224" y="558"/>
      <point x="224" y="608" type="curve" smooth="yes"/>
      <point x="224" y="645"/>
      <point x="277" y="682"/>
      <point x="346" y="682" type="curve" smooth="yes"/>
      <point x="366" y="682" type="line"/>
      <point x="366" y="700" type="line"/>
      <point x="11" y="700" type="line"/>
      <point x="11" y="682" type="line"/>
      <point x="37" y="682" type="line" smooth="yes"/>
      <point x="86" y="682"/>
      <point x="124" y="636"/>
      <point x="124" y="584" type="curve" smooth="yes"/>
      <point x="124" y="533"/>
      <point x="124" y="166"/>
      <point x="124" y="125" type="curve" smooth="yes"/>
      <point x="124" y="72"/>
      <point x="102" y="25"/>
      <point x="76" y="25" type="curve" smooth="yes"/>
      <point x="58" y="25"/>
      <point x="27" y="25"/>
    </contour>
  </outline>
</glyph>
<glyph name="M" format="2">
  <advance width="914"/>
  <unicode hex="004D"/>
  <anchor x="457" y="700" name="top"/>
  <anchor x="457" y="0" name="bottom"/>
  <outline>
    <contour>
      <point x="177" y="538" type="curve" smooth="yes"/>
      <point x="396" y="0" type="line"/>
      <point x="419" y="0" type="line"/>
      <point x="708" y="640" type="line"/>
      <point x="691" y="700" type="line"/>
      <point x="443" y="150" type="line"/>
      <point x="219" y="700" type="line"/>
      <point x="-1" y="700" type="line"/>
      <point x="-1" y="656" type="line"/>
      <point x="20" y="656"/>
      <point x="49" y="656"/>
      <point x="73" y="656" type="curve" smooth="yes"/>
      <point x="105" y="656"/>
      <point x="148" y="609"/>
    </contour>
    <contour>
      <point x="-2" y="0" type="line"/>
      <point x="257" y="0" type="line"/>
      <point x="257" y="17" type="line"/>
      <point x="247" y="17"/>
      <point x="239" y="17"/>
      <point x="228" y="17" type="curve" smooth="yes"/>
      <point x="176" y="17"/>
      <point x="140" y="54"/>
      <point x="140" y="92" type="curve" smooth="yes"/>
      <point x="140" y="656" type="line"/>
      <point x="124" y="656" type="line"/>
      <point x="124" y="484"/>
      <point x="124" y="187"/>
      <point x="124" y="141" type="curve" smooth="yes"/>
      <point x="124" y="74"/>
      <point x="84" y="17"/>
      <point x="42" y="17" type="curve" smooth="yes"/>
      <point x="-2" y="17" type="line"/>
    </contour>
    <contour>
      <point x="588" y="0" type="line"/>
      <point x="897" y="0" type="line"/>
      <point x="897" y="18" type="line"/>
      <point x="886" y="18"/>
      <point x="878" y="18"/>
      <point x="865" y="18" type="curve" smooth="yes"/>
      <point x="820" y="18"/>
      <point x="790" y="53"/>
      <point x="790" y="88" type="curve" smooth="yes"/>
      <point x="790" y="126"/>
      <point x="790" y="580"/>
      <point x="790" y="611" type="curve" smooth="yes"/>
      <point x="790" y="640"/>
      <point x="808" y="658"/>
      <point x="834" y="658" type="curve" smooth="yes"/>
      <point x="875" y="658" type="line"/>
      <point x="875" y="700" type="line"/>
      <point x="690" y="700" type="line"/>
      <point x="690" y="498"/>
      <point x="690" y="114"/>
      <point x="690" y="91" type="curve" smooth="yes"/>
      <point x="690" y="54"/>
      <point x="682" y="18"/>
      <point x="669" y="18" type="curve" smooth="yes"/>
      <point x="590" y="18" type="line"/>
    </contour>
  </outline>
</glyph>
<glyph name="N" format="2">
  <advance width="814"/>
  <unicode hex="004E"/>
  <anchor x="407" y="700" name="top"/>
  <anchor x="407" y="0" name="bottom"/>
  <outline>
    <contour>
      <point x="97" y="634" type="curve" smooth="yes"/>
      <point x="675" y="-6" type="line"/>
      <point x="708" y="-6" type="line"/>
      <point x="708" y="189"/>
      <point x="708" y="535"/>
      <point x="708" y="579" type="curve" smooth="yes"/>
      <point x="708" y="633"/>
      <point x="744" y="682"/>
      <point x="796" y="682" type="curve" smooth="yes"/>
      <point x="835" y="682" type="line"/>
      <point x="835" y="700" type="line"/>
      <point x="517" y="700" type="line"/>
      <point x="517" y="682" type="line"/>
      <point x="528" y="682"/>
      <point x="569" y="682"/>
      <point x="583" y="682" type="curve" smooth="yes"/>
      <point x="626" y="682"/>
      <point x="656" y="640"/>
      <point x="656" y="594" type="curve" smooth="yes"/>
      <point x="656" y="164" type="line"/>
      <point x="172" y="700" type="line"/>
      <point x="-18" y="697" type="line"/>
      <point x="-18" y="679" type="line"/>
      <point x="-5" y="679"/>
      <point x="6" y="679"/>
      <point x="20" y="679" type="curve" smooth="yes"/>
      <point x="46" y="679"/>
      <point x="78" y="654"/>
    </contour>
    <contour>
      <point x="12" y="0" type="line"/>
      <point x="303" y="0" type="line"/>
      <point x="303" y="17" type="line"/>
      <point x="243" y="17"/>
      <point x="239" y="17"/>
      <point x="228" y="17" type="curve" smooth="yes"/>
      <point x="176" y="17"/>
      <point x="140" y="44"/>
      <point x="140" y="92" type="curve" smooth="yes"/>
      <point x="140" y="656" type="line"/>
      <point x="124" y="656" type="line"/>
      <point x="124" y="484"/>
      <point x="124" y="187"/>
      <point x="124" y="141" type="curve" smooth="yes"/>
      <point x="124" y="74"/>
      <point x="84" y="17"/>
      <point x="42" y="17" type="curve" smooth="yes"/>
      <point x="12" y="17" type="line"/>
    </contour>
  </outline>
</glyph>
<glyph name="O" format="2">
  <advance width="896"/>
  <unicode hex="004F"/>
  <anchor x="448" y="700" name="top"/>
  <anchor x="448" y="0" name="bottom"/>
  <anchor x="448" y="350" name="center"/>
  <anchor x="876" y="700" name="topright"/>
  <anchor x="806" y="10" name="ogonek"/>
  <anchor x="20" y="700" name="topleft"/>
  <outline>
    <contour>
      <point x="441" y="-11" type="curve" smooth="yes"/>
      <point x="672" y="-11"/>
      <point x="835" y="145"/>
      <point x="835" y="365" type="curve" smooth="yes"/>
      <point x="835" y="572"/>
      <point x="673" y="719"/>
      <point x="445" y="719" type="curve" smooth="yes"/>
      <point x="220" y="719"/>
      <point x="61" y="572"/>
      <point x="61" y="365" type="curve" smooth="yes"/>
      <point x="61" y="145"/>
      <point x="218" y="-11"/>
    </contour>
    <contour>
      <point x="460" y="9" type="curve" smooth="yes"/>
      <point x="305" y="9"/>
      <point x="195" y="179"/>
      <point x="195" y="405" type="curve" smooth="yes"/>
      <point x="195" y="571"/>
      <point x="295" y="699"/>
      <point x="437" y="699" type="curve" smooth="yes"/>
      <point x="592" y="699"/>
      <point x="702" y="539"/>
      <point x="702" y="326" type="curve" smooth="yes"/>
      <point x="702" y="146"/>
      <point x="602" y="9"/>
    </contour>
  </outline>
</glyph>
<glyph name="P" format="2">
  <advance width="598"/>
  <unicode hex="0050"/>
  <anchor x="299" y="700" name="top"/>
  <anchor x="299" y="0" name="bottom"/>
  <outline>
    <contour>
      <point x="41" y="0" type="line"/>
      <point x="337" y="0" type="line"/>
      <point x="337" y="18" type="line"/>
      <point x="330" y="18"/>
      <point x="307" y="18"/>
      <point x="297" y="18" type="curve" smooth="yes"/>
      <point x="257" y="18"/>
      <point x="224" y="57"/>
      <point x="224" y="98" type="curve" smooth="yes"/>
      <point x="224" y="148"/>
      <point x="224" y="636"/>
      <point x="224" y="652" type="curve" smooth="yes"/>
      <point x="224" y="667"/>
      <point x="249" y="677"/>
      <point x="277" y="677" type="curve" smooth="yes"/>
      <point x="381" y="677"/>
      <point x="455" y="595"/>
      <point x="455" y="486" type="curve" smooth="yes"/>
      <point x="455" y="382"/>
      <point x="393" y="299"/>
      <point x="305" y="299" type="curve"/>
      <point x="305" y="279" type="line"/>
      <point x="463" y="279"/>
      <point x="574" y="369"/>
      <point x="574" y="497" type="curve" smooth="yes"/>
      <point x="574" y="616"/>
      <point x="469" y="702"/>
      <point x="320" y="702" type="curve" smooth="yes"/>
      <point x="266" y="702"/>
      <point x="182" y="699"/>
      <point x="154" y="699" type="curve" smooth="yes"/>
      <point x="138" y="699"/>
      <point x="84" y="702"/>
      <point x="24" y="702" type="curve"/>
      <point x="24" y="682" type="line"/>
      <point x="79" y="682"/>
      <point x="124" y="653"/>
      <point x="124" y="625" type="curve" smooth="yes"/>
      <point x="124" y="579"/>
      <point x="124" y="81"/>
      <point x="124" y="63" type="curve" smooth="yes"/>
      <point x="124" y="43"/>
      <point x="101" y="18"/>
      <point x="78" y="18" type="curve" smooth="yes"/>
      <point x="41" y="18" type="line"/>
    </contour>
  </outline>
</glyph>
<glyph name="Q" format="2">
  <advance width="896"/>
  <unicode hex="0051"/>
  <anchor x="448" y="700" name="top"/>
  <anchor x="448" y="0" name="bottom"/>
  <outline>
    <contour>
      <point x="441" y="-18" type="curve" smooth="yes"/>
      <point x="672" y="-18"/>
      <point x="835" y="138"/>
      <point x="835" y="358" type="curve" smooth="yes"/>
      <point x="835" y="565"/>
      <point x="673" y="712"/>
      <point x="445" y="712" type="curve" smooth="yes"/>
      <point x="220" y="712"/>
      <point x="61" y="565"/>
      <point x="61" y="358" type="curve" smooth="yes"/>
      <point x="61" y="138"/>
      <point x="218" y="-18"/>
    </contour>
    <contour>
      <point x="1047" y="-175" type="curve" smooth="yes"/>
      <point x="1080" y="-175"/>
      <point x="1124" y="-171"/>
      <point x="1153" y="-165" type="curve"/>
      <point x="1153" y="-150" type="line"/>
      <point x="900" y="-163"/>
      <point x="662" y="-84"/>
      <point x="578" y="27" type="curve"/>
      <point x="524" y="8"/>
      <point x="475" y="-5"/>
      <point x="460" y="-5" type="curve" smooth="yes"/>
      <point x="429" y="-5"/>
      <point x="373" y="13"/>
      <point x="326" y="38" type="curve"/>
      <point x="332" y="8" type="line"/>
      <point x="499" y="-99"/>
      <point x="796" y="-175"/>
    </contour>
    <contour>
      <point x="460" y="2" type="curve" smooth="yes"/>
      <point x="305" y="2"/>
      <point x="195" y="172"/>
      <point x="195" y="398" type="curve" smooth="yes"/>
      <point x="195" y="564"/>
      <point x="295" y="692"/>
      <point x="437" y="692" type="curve" smooth="yes"/>
      <point x="592" y="692"/>
      <point x="702" y="532"/>
      <point x="702" y="319" type="curve" smooth="yes"/>
      <point x="702" y="139"/>
      <point x="602" y="2"/>
    </contour>
  </outline>
</glyph>
<glyph name="R" format="2">
  <advance width="756"/>
  <unicode hex="0052"/>
  <anchor x="378" y="700" name="top"/>
  <anchor x="378" y="0" name="bottom"/>
  <outline>
    <contour>
      <point x="590" y="-3" type="curve" smooth="yes"/>
      <point x="654" y="-3"/>
      <point x="720" y="-2"/>
      <point x="750" y="0" type="curve"/>
      <point x="750" y="19" type="line"/>
      <point x="749" y="18"/>
      <point x="732" y="18"/>
      <point x="710" y="18" type="curve" smooth="yes"/>
      <point x="684" y="18"/>
      <point x="628" y="36"/>
      <point x="608" y="61" type="curve" smooth="yes"/>
      <point x="478" y="221"/>
      <point x="374" y="345"/>
      <point x="357" y="362" type="curve"/>
      <point x="377" y="328" type="line"/>
      <point x="501" y="352"/>
      <point x="589" y="439"/>
      <point x="589" y="537" type="curve" smooth="yes"/>
      <point x="589" y="627"/>
      <point x="490" y="700"/>
      <point x="350" y="700" type="curve" smooth="yes"/>
      <point x="309" y="700"/>
      <point x="197" y="698"/>
      <point x="167" y="698" type="curve" smooth="yes"/>
      <point x="116" y="698"/>
      <point x="66" y="700"/>
      <point x="15" y="700" type="curve"/>
      <point x="15" y="682" type="line"/>
      <point x="22" y="682"/>
      <point x="21" y="682"/>
      <point x="36" y="682" type="curve" smooth="yes"/>
      <point x="83" y="682"/>
      <point x="124" y="639"/>
      <point x="124" y="593" type="curve" smooth="yes"/>
      <point x="124" y="539"/>
      <point x="124" y="103"/>
      <point x="124" y="73" type="curve" smooth="yes"/>
      <point x="124" y="47"/>
      <point x="97" y="18"/>
      <point x="69" y="18" type="curve" smooth="yes"/>
      <point x="37" y="18" type="line"/>
      <point x="37" y="0" type="line"/>
      <point x="317" y="0" type="line"/>
      <point x="317" y="18" type="line"/>
      <point x="303" y="18"/>
      <point x="284" y="18"/>
      <point x="254" y="18" type="curve" smooth="yes"/>
      <point x="240" y="18"/>
      <point x="224" y="36"/>
      <point x="224" y="72" type="curve" smooth="yes"/>
      <point x="224" y="116"/>
      <point x="224" y="588"/>
      <point x="224" y="625" type="curve" smooth="yes"/>
      <point x="224" y="658"/>
      <point x="248" y="675"/>
      <point x="273" y="675" type="curve" smooth="yes"/>
      <point x="297" y="675"/>
      <point x="313" y="675"/>
      <point x="336" y="675" type="curve" smooth="yes"/>
      <point x="412" y="675"/>
      <point x="465" y="601"/>
      <point x="465" y="517" type="curve" smooth="yes"/>
      <point x="465" y="426"/>
      <point x="390" y="352"/>
      <point x="284" y="352" type="curve" smooth="yes"/>
      <point x="170" y="352" type="line"/>
      <point x="170" y="327" type="line"/>
      <point x="275" y="327" type="line"/>
      <point x="352" y="219"/>
      <point x="439" y="114"/>
      <point x="485" y="60" type="curve" smooth="yes"/>
      <point x="516" y="23"/>
      <point x="556" y="-3"/>
    </contour>
  </outline>
</glyph>
<glyph name="S" format="2">
  <advance width="572"/>
  <unicode hex="0053"/>
  <anchor x="286" y="700" name="top"/>
  <anchor x="286" y="0" name="bottom"/>
  <outline>
    <contour>
      <point x="259" y="-16" type="curve" smooth="yes"/>
      <point x="407" y="-16"/>
      <point x="511" y="71"/>
      <point x="511" y="194" type="curve" smooth="yes"/>
      <point x="511" y="395"/>
      <point x="179" y="384"/>
      <point x="179" y="563" type="curve" smooth="yes"/>
      <point x="179" y="633"/>
      <point x="231" y="692"/>
      <point x="297" y="692" type="curve" smooth="yes"/>
      <point x="374" y="692"/>
      <point x="450" y="618"/>
      <point x="467" y="527" type="curve"/>
      <point x="473" y="527" type="line"/>
      <point x="473" y="704" type="line"/>
      <point x="448" y="704" type="line"/>
      <point x="431" y="673" type="line"/>
      <point x="403" y="696"/>
      <point x="349" y="712"/>
      <point x="299" y="712" type="curve" smooth="yes"/>
      <point x="168" y="712"/>
      <point x="75" y="634"/>
      <point x="75" y="524" type="curve" smooth="yes"/>
      <point x="75" y="329"/>
      <point x="406" y="334"/>
      <point x="406" y="148" type="curve" smooth="yes"/>
      <point x="406" y="70"/>
      <point x="345" y="4"/>
      <point x="263" y="4" type="curve" smooth="yes"/>
      <point x="161" y="4"/>
      <point x="77" y="95"/>
      <point x="75" y="209" type="curve"/>
      <point x="52" y="209" type="line"/>
      <point x="52" y="80" type="line"/>
      <point x="93" y="12"/>
      <point x="179" y="-16"/>
    </contour>
  </outline>
</glyph>
<glyph name="T" format="2">
  <advance width="692"/>
  <unicode hex="0054"/>
  <anchor x="346" y="700" name="top"/>
  <anchor x="346" y="0" name="bottom"/>
  <anchor x="346" y="350" name="center"/>
  <outline>
    <contour>
      <point x="210" y="0" type="line"/>
      <point x="511" y="0" type="line"/>
      <point x="511" y="18" type="line"/>
      <point x="500" y="18"/>
      <point x="492" y="18"/>
      <point x="478" y="18" type="curve" smooth="yes"/>
      <point x="464" y="18"/>
      <point x="402" y="22"/>
      <point x="402" y="66" type="curve" smooth="yes"/>
      <point x="402" y="695" type="line"/>
      <point x="302" y="695" type="line"/>
      <point x="302" y="497"/>
      <point x="302" y="104"/>
      <point x="302" y="95" type="curve" smooth="yes"/>
      <point x="302" y="68"/>
      <point x="275" y="14"/>
      <point x="238" y="14" type="curve" smooth="yes"/>
      <point x="210" y="14" type="line"/>
    </contour>
    <contour>
      <point x="677" y="546" type="line"/>
      <point x="686" y="552" type="line"/>
      <point x="670" y="713" type="line"/>
      <point x="626" y="700" type="line"/>
      <point x="59" y="700" type="line"/>
      <point x="24" y="711" type="line"/>
      <point x="6" y="562" type="line"/>
      <point x="12" y="556" type="line"/>
      <point x="79" y="675" type="line"/>
      <point x="605" y="675" type="line"/>
    </contour>
  </outline>
</glyph>
<glyph name="U" format="2">
  <advance width="826"/>
  <unicode hex="0055"/>
  <anchor x="414" y="700" name="top"/>
  <anchor x="413" y="0" name="bottom"/>
  <anchor x="743" y="10" name="ogonek"/>
  <anchor x="806" y="700" name="topright"/>
  <outline>
    <contour>
      <point x="404" y="-11" type="curve" smooth="yes"/>
      <point x="599" y="-11"/>
      <point x="741" y="90"/>
      <point x="741" y="236" type="curve" smooth="yes"/>
      <point x="741" y="437"/>
      <point x="741" y="578"/>
      <point x="741" y="611" type="curve" smooth="yes"/>
      <point x="741" y="642"/>
      <point x="761" y="681"/>
      <point x="794" y="681" type="curve" smooth="yes"/>
      <point x="808" y="681" type="line"/>
      <point x="808" y="699" type="line"/>
      <point x="528" y="699" type="line"/>
      <point x="528" y="681" type="line"/>
      <point x="565" y="681"/>
      <point x="626" y="681"/>
      <point x="639" y="681" type="curve" smooth="yes"/>
      <point x="669" y="681"/>
      <point x="701" y="634"/>
      <point x="701" y="603" type="curve" smooth="yes"/>
      <point x="701" y="578"/>
      <point x="701" y="246"/>
      <point x="701" y="231" type="curve" smooth="yes"/>
      <point x="701" y="108"/>
      <point x="584" y="21"/>
      <point x="418" y="21" type="curve" smooth="yes"/>
      <point x="304" y="21"/>
      <point x="196" y="88"/>
      <point x="196" y="183" type="curve" smooth="yes"/>
      <point x="196" y="249"/>
      <point x="196" y="606"/>
      <point x="196" y="626" type="curve" smooth="yes"/>
      <point x="196" y="656"/>
      <point x="231" y="681"/>
      <point x="261" y="681" type="curve" smooth="yes"/>
      <point x="277" y="681" type="line"/>
      <point x="277" y="699" type="line"/>
      <point x="37" y="699" type="line"/>
      <point x="37" y="681" type="line"/>
      <point x="44" y="681"/>
      <point x="50" y="681"/>
      <point x="59" y="681" type="curve" smooth="yes"/>
      <point x="77" y="681"/>
      <point x="96" y="631"/>
      <point x="96" y="570" type="curve" smooth="yes"/>
      <point x="96" y="514"/>
      <point x="96" y="234"/>
      <point x="96" y="182" type="curve" smooth="yes"/>
      <point x="96" y="69"/>
      <point x="216" y="-11"/>
    </contour>
  </outline>
</glyph>
<glyph name="V" format="2">
  <advance width="717"/>
  <unicode hex="0056"/>
  <anchor x="359" y="700" name="top"/>
  <anchor x="359" y="0" name="bottom"/>
  <outline>
    <contour>
      <point x="85" y="627" type="curve" smooth="yes"/>
      <point x="351" y="-12" type="line"/>
      <point x="385" y="0" type="line"/>
      <point x="614" y="641" type="line" smooth="yes"/>
      <point x="620" y="657"/>
      <point x="643" y="679"/>
      <point x="669" y="679" type="curve" smooth="yes"/>
      <point x="711" y="679" type="line"/>
      <point x="711" y="700" type="line"/>
      <point x="481" y="700" type="line"/>
      <point x="481" y="679" type="line"/>
      <point x="535" y="679" type="line" smooth="yes"/>
      <point x="559" y="679"/>
      <point x="570" y="658"/>
      <point x="564" y="641" type="curve" smooth="yes"/>
      <point x="389" y="150" type="line"/>
      <point x="187" y="621" type="line" smooth="yes"/>
      <point x="174" y="651"/>
      <point x="194" y="682"/>
      <point x="224" y="682" type="curve" smooth="yes"/>
      <point x="276" y="682" type="line"/>
      <point x="276" y="700" type="line"/>
      <point x="6" y="700" type="line"/>
      <point x="6" y="682" type="line"/>
      <point x="40" y="682" type="line" smooth="yes"/>
      <point x="54" y="682"/>
      <point x="73" y="653"/>
    </contour>
  </outline>
</glyph>
<glyph name="W" format="2">
  <advance width="1027"/>
  <unicode hex="0057"/>
  <anchor x="514" y="700" name="top"/>
  <anchor x="514" y="0" name="bottom"/>
  <outline>
    <contour>
      <point x="475" y="627" type="curve"/>
      <point x="681" y="-12" type="line"/>
      <point x="715" y="0" type="line"/>
      <point x="924" y="641" type="line" smooth="yes"/>
      <point x="932" y="666"/>
      <point x="953" y="679"/>
      <point x="979" y="679" type="curve" smooth="yes"/>
      <point x="1021" y="679" type="line"/>
      <point x="1021" y="700" type="line"/>
      <point x="834" y="700" type="line"/>
      <point x="834" y="679" type="line"/>
      <point x="845" y="679" type="line" smooth="yes"/>
      <point x="869" y="679"/>
      <point x="881" y="667"/>
      <point x="874" y="641" type="curve" smooth="yes"/>
      <point x="733" y="147" type="line"/>
      <point x="584" y="616" type="line" smooth="yes"/>
      <point x="574" y="646"/>
      <point x="584" y="682"/>
      <point x="614" y="682" type="curve" smooth="yes"/>
      <point x="646" y="682" type="line"/>
      <point x="646" y="700" type="line"/>
      <point x="396" y="700" type="line"/>
      <point x="396" y="682" type="line"/>
      <point x="430" y="682" type="line" smooth="yes"/>
      <point x="444" y="682"/>
      <point x="463" y="653"/>
    </contour>
    <contour>
      <point x="85" y="627" type="curve"/>
      <point x="291" y="-12" type="line"/>
      <point x="325" y="0" type="line"/>
      <point x="565" y="682" type="line"/>
      <point x="515" y="682" type="line"/>
      <point x="344" y="144" type="line"/>
      <point x="192" y="621" type="line" smooth="yes"/>
      <point x="182" y="651"/>
      <point x="194" y="682"/>
      <point x="224" y="682" type="curve" smooth="yes"/>
      <point x="256" y="682" type="line"/>
      <point x="256" y="700" type="line"/>
      <point x="6" y="700" type="line"/>
      <point x="6" y="682" type="line"/>
      <point x="40" y="682" type="line" smooth="yes"/>
      <point x="54" y="682"/>
      <point x="73" y="653"/>
    </contour>
  </outline>
</glyph>
<glyph name="X" format="2">
  <advance width="738"/>
  <unicode hex="0058"/>
  <anchor x="369" y="700" name="top"/>
  <anchor x="369" y="0" name="bottom"/>
  <outline>
    <contour>
      <point x="419" y="0" type="line"/>
      <point x="719" y="0" type="line"/>
      <point x="719" y="18" type="line"/>
      <point x="689" y="18" type="line" smooth="yes"/>
      <point x="672" y="18"/>
      <point x="635" y="39"/>
      <point x="615" y="69" type="curve" smooth="yes"/>
      <point x="498" y="249"/>
      <point x="340" y="503"/>
      <point x="229" y="652" type="curve" smooth="yes"/>
      <point x="216" y="670"/>
      <point x="227" y="682"/>
      <point x="254" y="682" type="curve" smooth="yes"/>
      <point x="316" y="682" type="line"/>
      <point x="316" y="700" type="line"/>
      <point x="36" y="700" type="line"/>
      <point x="36" y="682" type="line"/>
      <point x="48" y="682" type="line" smooth="yes"/>
      <point x="69" y="682"/>
      <point x="101" y="672"/>
      <point x="110" y="659" type="curve" smooth="yes"/>
      <point x="143" y="611"/>
      <point x="463" y="132"/>
      <point x="474" y="116" type="curve" smooth="yes"/>
      <point x="508" y="64"/>
      <point x="497" y="18"/>
      <point x="463" y="18" type="curve" smooth="yes"/>
      <point x="419" y="18" type="line"/>
    </contour>
    <contour>
      <point x="15" y="18" type="curve"/>
      <point x="15" y="0" type="line"/>
      <point x="284" y="0" type="line"/>
      <point x="284" y="18" type="line"/>
      <point x="275" y="18"/>
      <point x="276" y="18"/>
      <point x="257" y="18" type="curve" smooth="yes"/>
      <point x="197" y="18"/>
      <point x="174" y="59"/>
      <point x="202" y="104" type="curve" smooth="yes"/>
      <point x="209" y="115"/>
      <point x="285" y="220"/>
      <point x="390" y="351" type="curve"/>
      <point x="376" y="364" type="line"/>
      <point x="314" y="285"/>
      <point x="208" y="156"/>
      <point x="128" y="60" type="curve" smooth="yes"/>
      <point x="107" y="35"/>
      <point x="60" y="18"/>
    </contour>
    <contour>
      <point x="376" y="354" type="curve"/>
      <point x="390" y="341" type="line"/>
      <point x="640" y="661" type="line" smooth="yes"/>
      <point x="651" y="675"/>
      <point x="667" y="682"/>
      <point x="682" y="682" type="curve" smooth="yes"/>
      <point x="723" y="682" type="line"/>
      <point x="723" y="700" type="line"/>
      <point x="452" y="700" type="line"/>
      <point x="452" y="682" type="line"/>
      <point x="466" y="682"/>
      <point x="477" y="682"/>
      <point x="527" y="682" type="curve" smooth="yes"/>
      <point x="562" y="682"/>
      <point x="571" y="633"/>
      <point x="533" y="579" type="curve" smooth="yes"/>
      <point x="499" y="530"/>
      <point x="496" y="515"/>
    </contour>
  </outline>
</glyph>
<glyph name="Y" format="2">
  <advance width="639"/>
  <unicode hex="0059"/>
  <anchor x="320" y="700" name="top"/>
  <anchor x="320" y="0" name="bottom"/>
  <anchor x="20" y="700" name="topleft"/>
  <outline>
    <contour>
      <point x="86" y="649" type="curve"/>
      <point x="268" y="292" type="line"/>
      <point x="362" y="319" type="line"/>
      <point x="199" y="632" type="line" smooth="yes"/>
      <point x="186" y="660"/>
      <point x="199" y="682"/>
      <point x="227" y="682" type="curve" smooth="yes"/>
      <point x="316" y="682" type="line"/>
      <point x="316" y="700" type="line"/>
      <point x="6" y="700" type="line"/>
      <point x="6" y="682" type="line"/>
      <point x="48" y="682" type="line" smooth="yes"/>
      <point x="59" y="682"/>
      <point x="77" y="662"/>
    </contour>
    <contour>
      <point x="170" y="0" type="line"/>
      <point x="471" y="0" type="line"/>
      <point x="471" y="18" type="line"/>
      <point x="438" y="18" type="line" smooth="yes"/>
      <point x="424" y="18"/>
      <point x="362" y="22"/>
      <point x="362" y="66" type="curve" smooth="yes"/>
      <point x="362" y="314" type="line"/>
      <point x="262" y="314" type="line"/>
      <point x="262" y="95" type="line" smooth="yes"/>
      <point x="262" y="68"/>
      <point x="235" y="14"/>
      <point x="198" y="14" type="curve" smooth="yes"/>
      <point x="170" y="14" type="line"/>
    </contour>
    <contour>
      <point x="487" y="630" type="curve"/>
      <point x="337" y="314" type="line"/>
      <point x="362" y="314" type="line"/>
      <point x="550" y="661" type="line"/>
      <point x="560" y="673"/>
      <point x="577" y="682"/>
      <point x="592" y="682" type="curve" smooth="yes"/>
      <point x="633" y="682" type="line"/>
      <point x="633" y="700" type="line"/>
      <point x="422" y="700" type="line"/>
      <point x="422" y="682" type="line"/>
      <point x="477" y="682" type="line" smooth="yes"/>
      <point x="495" y="682"/>
      <point x="497" y="655"/>
    </contour>
  </outline>
</glyph>
<glyph name="Z" format="2">
  <advance width="669"/>
  <unicode hex="005A"/>
  <anchor x="335" y="700" name="top"/>
  <anchor x="335" y="0" name="bottom"/>
  <anchor x="335" y="350" name="center"/>
  <outline>
    <contour>
      <point x="42" y="0" type="curve"/>
      <point x="292" y="0" type="line"/>
      <point x="292" y="25" type="line"/>
      <point x="223" y="25" type="line" smooth="yes"/>
      <point x="199" y="25"/>
      <point x="193" y="52"/>
      <point x="209" y="77" type="curve" smooth="yes"/>
      <point x="602" y="649" type="line"/>
      <point x="602" y="700" type="line"/>
      <point x="131" y="700" type="line"/>
      <point x="73" y="482" type="line"/>
      <point x="98" y="476" type="line"/>
      <point x="145" y="587"/>
      <point x="210" y="675"/>
      <point x="239" y="675" type="curve" smooth="yes"/>
      <point x="457" y="675" type="line" smooth="yes"/>
      <point x="481" y="675"/>
      <point x="487" y="650"/>
      <point x="471" y="628" type="curve" smooth="yes"/>
      <point x="388" y="516"/>
      <point x="211" y="256"/>
    </contour>
    <contour>
      <point x="79" y="0" type="line"/>
      <point x="587" y="0" type="line"/>
      <point x="635" y="212" type="line"/>
      <point x="614" y="219" type="line"/>
      <point x="583" y="141"/>
      <point x="510" y="25"/>
      <point x="450" y="25" type="curve" smooth="yes"/>
      <point x="79" y="25" type="line"/>
    </contour>
  </outline>
</glyph>
<glyph name="a" format="2">
  <advance width="443"/>
  <unicode hex="0061"/>
  <anchor x="222" y="425" name="top"/>
  <anchor x="222" y="0" name="bottom"/>
  <anchor x="399" y="10" name="ogonek"/>
  <outline>
    <contour>
      <point x="322" y="-12" type="curve" smooth="yes"/>
      <point x="388" y="-12"/>
      <point x="435" y="17"/>
      <point x="435" y="59" type="curve" smooth="yes"/>
      <point x="435" y="76" type="line"/>
      <point x="420" y="76" type="line"/>
      <point x="420" y="60"/>
      <point x="404" y="48"/>
      <point x="388" y="48" type="curve" smooth="yes"/>
      <point x="369" y="48"/>
      <point x="355" y="65"/>
      <point x="355" y="89" type="curve" smooth="yes"/>
      <point x="355" y="121"/>
      <point x="355" y="295"/>
      <point x="355" y="331" type="curve" smooth="yes"/>
      <point x="355" y="393"/>
      <point x="307" y="437"/>
      <point x="239" y="437" type="curve" smooth="yes"/>
      <point x="202" y="437"/>
      <point x="151" y="417"/>
      <point x="117" y="389" type="curve" smooth="yes"/>
      <point x="74" y="352"/>
      <point x="43" y="309"/>
      <point x="43" y="285" type="curve" smooth="yes"/>
      <point x="43" y="263"/>
      <point x="60" y="248"/>
      <point x="84" y="248" type="curve" smooth="yes"/>
      <point x="107" y="248"/>
      <point x="124" y="261"/>
      <point x="124" y="280" type="curve" smooth="yes"/>
      <point x="124" y="302"/>
      <point x="108" y="313"/>
      <point x="108" y="337" type="curve" smooth="yes"/>
      <point x="108" y="363"/>
      <point x="145" y="382"/>
      <point x="198" y="382" type="curve" smooth="yes"/>
      <point x="240" y="382"/>
      <point x="270" y="342"/>
      <point x="270" y="299" type="curve" smooth="yes"/>
      <point x="270" y="238"/>
      <point x="270" y="93"/>
      <point x="270" y="64" type="curve" smooth="yes"/>
      <point x="270" y="19"/>
      <point x="292" y="-12"/>
    </contour>
    <contour>
      <point x="130" y="-12" type="curve" smooth="yes"/>
      <point x="169" y="-12"/>
      <point x="245" y="15"/>
      <point x="294" y="58" type="curve"/>
      <point x="294" y="77" type="line"/>
      <point x="261" y="35"/>
      <point x="214" y="25"/>
      <point x="202" y="25" type="curve" smooth="yes"/>
      <point x="155" y="25"/>
      <point x="136" y="64"/>
      <point x="136" y="101" type="curve" smooth="yes"/>
      <point x="136" y="128"/>
      <point x="148" y="150"/>
      <point x="173" y="163" type="curve"/>
      <point x="309" y="223" type="line"/>
      <point x="311" y="241" type="line"/>
      <point x="98" y="147" type="line" smooth="yes"/>
      <point x="65" y="131"/>
      <point x="42" y="118"/>
      <point x="42" y="85" type="curve" smooth="yes"/>
      <point x="42" y="29"/>
      <point x="70" y="-12"/>
    </contour>
  </outline>
</glyph>
<glyph name="b" format="2">
  <advance width="541"/>
  <unicode hex="0062"/>
  <anchor x="271" y="425" name="top"/>
  <anchor x="271" y="0" name="bottom"/>
  <anchor x="135" y="560" name="center"/>
  <outline>
    <contour>
      <point x="239" y="-12" type="curve" smooth="yes"/>
      <point x="397" y="-12"/>
      <point x="508" y="87"/>
      <point x="508" y="241" type="curve" smooth="yes"/>
      <point x="508" y="356"/>
      <point x="418" y="438"/>
      <point x="290" y="438" type="curve" smooth="yes"/>
      <point x="234" y="438"/>
      <point x="165" y="420"/>
      <point x="123" y="394" type="curve"/>
      <point x="131" y="372" type="line"/>
      <point x="165" y="394"/>
      <point x="215" y="410"/>
      <point x="250" y="410" type="curve" smooth="yes"/>
      <point x="342" y="410"/>
      <point x="410" y="325"/>
      <point x="410" y="217" type="curve" smooth="yes"/>
      <point x="410" y="100"/>
      <point x="353" y="18"/>
      <point x="277" y="18" type="curve" smooth="yes"/>
      <point x="210" y="18"/>
      <point x="145" y="60"/>
      <point x="121" y="119" type="curve"/>
      <point x="71" y="46" type="line"/>
      <point x="99" y="12"/>
      <point x="169" y="-12"/>
    </contour>
    <contour>
      <point x="71" y="46" type="curve"/>
      <point x="160" y="26" type="line"/>
      <point x="160" y="636" type="line"/>
      <point x="159" y="700" type="line"/>
      <point x="157" y="708" type="line"/>
      <point x="110" y="690"/>
      <point x="64" y="675"/>
      <point x="17" y="663" type="curve"/>
      <point x="17" y="657" type="line"/>
      <point x="54" y="657"/>
      <point x="79" y="638"/>
      <point x="79" y="612" type="curve" smooth="yes"/>
      <point x="83" y="451"/>
      <point x="79" y="290"/>
      <point x="79" y="149" type="curve" smooth="yes"/>
      <point x="79" y="100"/>
      <point x="76" y="58"/>
    </contour>
  </outline>
</glyph>
<glyph name="c" format="2">
  <advance width="422"/>
  <unicode hex="0063"/>
  <anchor x="211" y="425" name="top"/>
  <anchor x="211" y="0" name="bottom"/>
  <outline>
    <contour>
      <point x="221" y="-12" type="curve" smooth="yes"/>
      <point x="283" y="-12"/>
      <point x="364" y="30"/>
      <point x="416" y="90" type="curve"/>
      <point x="396" y="100" type="line"/>
      <point x="364" y="67"/>
      <point x="313" y="44"/>
      <point x="272" y="44" type="curve" smooth="yes"/>
      <point x="178" y="44"/>
      <point x="112" y="128"/>
      <point x="112" y="233" type="curve" smooth="yes"/>
      <point x="112" y="323"/>
      <point x="162" y="409"/>
      <point x="232" y="409" type="curve" smooth="yes"/>
      <point x="315" y="409"/>
      <point x="292" y="330"/>
      <point x="337" y="330" type="curve" smooth="yes"/>
      <point x="368" y="330"/>
      <point x="390" y="345"/>
      <point x="390" y="366" type="curve" smooth="yes"/>
      <point x="390" y="408"/>
      <point x="345" y="437"/>
      <point x="281" y="437" type="curve" smooth="yes"/>
      <point x="136" y="437"/>
      <point x="33" y="328"/>
      <point x="33" y="192" type="curve" smooth="yes"/>
      <point x="33" y="73"/>
      <point x="111" y="-12"/>
    </contour>
  </outline>
</glyph>
<glyph name="d" format="2">
  <advance width="549"/>
  <unicode hex="0064"/>
  <anchor x="275" y="425" name="top"/>
  <anchor x="275" y="0" name="bottom"/>
  <anchor x="412" y="560" name="center"/>
  <anchor x="529" y="700" name="topright"/>
  <outline>
    <contour>
      <point x="387" y="-12" type="line"/>
      <point x="553" y="7" type="line"/>
      <point x="550" y="26" type="line"/>
      <point x="528" y="22"/>
      <point x="503" y="19"/>
      <point x="488" y="19" type="curve" smooth="yes"/>
      <point x="471" y="19"/>
      <point x="459" y="32"/>
      <point x="459" y="54" type="curve" smooth="yes"/>
      <point x="454" y="235"/>
      <point x="454" y="435"/>
      <point x="459" y="636" type="curve" smooth="yes"/>
      <point x="462" y="700" type="line"/>
      <point x="455" y="708" type="line"/>
      <point x="306" y="700" type="line"/>
      <point x="306" y="683" type="line"/>
      <point x="308" y="683"/>
      <point x="320" y="683"/>
      <point x="322" y="683" type="curve" smooth="yes"/>
      <point x="355" y="683"/>
      <point x="381" y="666"/>
      <point x="381" y="641" type="curve" smooth="yes"/>
      <point x="381" y="48" type="line"/>
      <point x="385" y="0" type="line"/>
    </contour>
    <contour>
      <point x="270" y="-12" type="curve" smooth="yes"/>
      <point x="337" y="-12"/>
      <point x="399" y="33"/>
      <point x="420" y="96" type="curve"/>
      <point x="419" y="175" type="line"/>
      <point x="407" y="84"/>
      <point x="350" y="10"/>
      <point x="282" y="10" type="curve" smooth="yes"/>
      <point x="193" y="10"/>
      <point x="130" y="95"/>
      <point x="130" y="216" type="curve" smooth="yes"/>
      <point x="130" y="328"/>
      <point x="186" y="417"/>
      <point x="264" y="417" type="curve" smooth="yes"/>
      <point x="315" y="417"/>
      <point x="371" y="361"/>
      <point x="398" y="311" type="curve"/>
      <point x="398" y="397" type="line"/>
      <point x="368" y="420"/>
      <point x="318" y="437"/>
      <point x="276" y="437" type="curve" smooth="yes"/>
      <point x="134" y="437"/>
      <point x="33" y="343"/>
      <point x="33" y="219" type="curve" smooth="yes"/>
      <point x="33" y="84"/>
      <point x="131" y="-12"/>
    </contour>
  </outline>
</glyph>
<glyph name="e" format="2">
  <advance width="446"/>
  <unicode hex="0065"/>
  <anchor x="223" y="425" name="top"/>
  <anchor x="223" y="0" name="bottom"/>
  <anchor x="401" y="10" name="ogonek"/>
  <outline>
    <contour>
      <point x="218" y="-13" type="curve" smooth="yes"/>
      <point x="282" y="-13"/>
      <point x="364" y="30"/>
      <point x="416" y="90" type="curve"/>
      <point x="396" y="100" type="line"/>
      <point x="365" y="68"/>
      <point x="316" y="45"/>
      <point x="278" y="45" type="curve" smooth="yes"/>
      <point x="180" y="45"/>
      <point x="111" y="130"/>
      <point x="111" y="237" type="curve" smooth="yes"/>
      <point x="111" y="342"/>
      <point x="167" y="417"/>
      <point x="247" y="417" type="curve" smooth="yes"/>
      <point x="290" y="417"/>
      <point x="321" y="381"/>
      <point x="321" y="331" type="curve" smooth="yes"/>
      <point x="321" y="323"/>
      <point x="318" y="311"/>
      <point x="314" y="303" type="curve"/>
      <point x="82" y="303" type="line"/>
      <point x="82" y="283" type="line"/>
      <point x="184" y="283"/>
      <point x="361" y="283"/>
      <point x="403" y="283" type="curve" smooth="yes"/>
      <point x="414" y="283"/>
      <point x="422" y="282"/>
      <point x="422" y="295" type="curve" smooth="yes"/>
      <point x="422" y="384"/>
      <point x="348" y="437"/>
      <point x="244" y="437" type="curve" smooth="yes"/>
      <point x="120" y="437"/>
      <point x="33" y="351"/>
      <point x="33" y="216" type="curve" smooth="yes"/>
      <point x="33" y="82"/>
      <point x="110" y="-13"/>
    </contour>
  </outline>
</glyph>
<glyph name="f" format="2">
  <advance width="309"/>
  <unicode hex="0066"/>
  <anchor x="155" y="700" name="top"/>
  <anchor x="155" y="0" name="bottom"/>
  <outline>
    <contour>
      <point x="10" y="0" type="line"/>
      <point x="266" y="0" type="line"/>
      <point x="266" y="18" type="line"/>
      <point x="257" y="18"/>
      <point x="256" y="18"/>
      <point x="219" y="18" type="curve" smooth="yes"/>
      <point x="197" y="18"/>
      <point x="178" y="31"/>
      <point x="178" y="49" type="curve" smooth="yes"/>
      <point x="178" y="80"/>
      <point x="178" y="487"/>
      <point x="178" y="521" type="curve" smooth="yes"/>
      <point x="178" y="594"/>
      <point x="201" y="682"/>
      <point x="229" y="706" type="curve" smooth="yes"/>
      <point x="243" y="718"/>
      <point x="268" y="726"/>
      <point x="290" y="726" type="curve" smooth="yes"/>
      <point x="342" y="726"/>
      <point x="321" y="650"/>
      <point x="369" y="650" type="curve" smooth="yes"/>
      <point x="394" y="650"/>
      <point x="445" y="676"/>
      <point x="445" y="713" type="curve" smooth="yes"/>
      <point x="445" y="752"/>
      <point x="409" y="779"/>
      <point x="357" y="779" type="curve" smooth="yes"/>
      <point x="316" y="779"/>
      <point x="248" y="746"/>
      <point x="193" y="699" type="curve" smooth="yes"/>
      <point x="140" y="655"/>
      <point x="103" y="572"/>
      <point x="103" y="502" type="curve" smooth="yes"/>
      <point x="103" y="439"/>
      <point x="72" y="394"/>
      <point x="27" y="394" type="curve" smooth="yes"/>
      <point x="15" y="394" type="line"/>
      <point x="15" y="376" type="line"/>
      <point x="100" y="376" type="line"/>
      <point x="105" y="276"/>
      <point x="105" y="167"/>
      <point x="100" y="67" type="curve" smooth="yes"/>
      <point x="100" y="38"/>
      <point x="81" y="18"/>
      <point x="55" y="18" type="curve" smooth="yes"/>
      <point x="10" y="18" type="line"/>
    </contour>
    <contour>
      <point x="170" y="376" type="line"/>
      <point x="303" y="376" type="line"/>
      <point x="303" y="425" type="line"/>
      <point x="170" y="425" type="line"/>
    </contour>
  </outline>
</glyph>
<glyph name="g" format="2">
  <advance width="507"/>
  <unicode hex="0067"/>
  <anchor x="254" y="425" name="top"/>
  <anchor x="254" y="-150" name="bottom"/>
  <outline>
    <contour>
      <point x="233" y="-316" type="curve" smooth="yes"/>
      <point x="384" y="-316"/>
      <point x="491" y="-220"/>
      <point x="491" y="-84" type="curve" smooth="yes"/>
      <point x="491" y="-2"/>
      <point x="418" y="56"/>
      <point x="314" y="56" type="curve" smooth="yes"/>
      <point x="249" y="56"/>
      <point x="192" y="56"/>
      <point x="172" y="56" type="curve" smooth="yes"/>
      <point x="138" y="56"/>
      <point x="114" y="60"/>
      <point x="114" y="80" type="curve" smooth="yes"/>
      <point x="114" y="94"/>
      <point x="140" y="116"/>
      <point x="176" y="132" type="curve"/>
      <point x="151" y="134" type="line"/>
      <point x="87" y="104"/>
      <point x="42" y="67"/>
      <point x="42" y="46" type="curve" smooth="yes"/>
      <point x="42" y="2"/>
      <point x="76" y="-19"/>
      <point x="123" y="-19" type="curve" smooth="yes"/>
      <point x="182" y="-19"/>
      <point x="304" y="-19"/>
      <point x="331" y="-19" type="curve" smooth="yes"/>
      <point x="384" y="-19"/>
      <point x="417" y="-58"/>
      <point x="417" y="-114" type="curve" smooth="yes"/>
      <point x="417" y="-214"/>
      <point x="351" y="-285"/>
      <point x="251" y="-285" type="curve" smooth="yes"/>
      <point x="148" y="-285"/>
      <point x="80" y="-228"/>
      <point x="80" y="-147" type="curve" smooth="yes"/>
      <point x="80" y="-98"/>
      <point x="126" y="-38"/>
      <point x="199" y="-1" type="curve"/>
      <point x="167" y="-1" type="line"/>
      <point x="167" y="7" type="line"/>
      <point x="77" y="-32"/>
      <point x="13" y="-107"/>
      <point x="13" y="-174" type="curve" smooth="yes"/>
      <point x="13" y="-257"/>
      <point x="104" y="-316"/>
    </contour>
    <contour>
      <point x="250" y="112" type="curve" smooth="yes"/>
      <point x="349" y="112"/>
      <point x="418" y="180"/>
      <point x="418" y="275" type="curve" smooth="yes"/>
      <point x="418" y="369"/>
      <point x="345" y="436"/>
      <point x="241" y="436" type="curve" smooth="yes"/>
      <point x="140" y="436"/>
      <point x="68" y="364"/>
      <point x="68" y="262" type="curve" smooth="yes"/>
      <point x="68" y="174"/>
      <point x="143" y="112"/>
    </contour>
    <contour>
      <point x="252" y="129" type="curve" smooth="yes"/>
      <point x="195" y="129"/>
      <point x="154" y="206"/>
      <point x="154" y="300" type="curve" smooth="yes"/>
      <point x="154" y="364"/>
      <point x="187" y="418"/>
      <point x="234" y="418" type="curve" smooth="yes"/>
      <point x="289" y="418"/>
      <point x="328" y="345"/>
      <point x="328" y="255" type="curve" smooth="yes"/>
      <point x="328" y="187"/>
      <point x="296" y="129"/>
    </contour>
    <contour>
      <point x="491" y="334" type="line"/>
      <point x="498" y="404" type="line"/>
      <point x="477" y="404"/>
      <point x="382" y="375"/>
      <point x="358" y="375" type="curve"/>
      <point x="366" y="355" type="line"/>
    </contour>
  </outline>
</glyph>
<glyph name="h" format="2">
  <advance width="551"/>
  <unicode hex="0068"/>
  <anchor x="276" y="700" name="top"/>
  <anchor x="276" y="0" name="bottom"/>
  <anchor x="138" y="560" name="center"/>
  <outline>
    <contour>
      <point x="307" y="1" type="line"/>
      <point x="549" y="1" type="line"/>
      <point x="549" y="21" type="line"/>
      <point x="539" y="21"/>
      <point x="494" y="21"/>
      <point x="488" y="21" type="curve" smooth="yes"/>
      <point x="474" y="21"/>
      <point x="464" y="38"/>
      <point x="464" y="53" type="curve" smooth="yes"/>
      <point x="464" y="97"/>
      <point x="461" y="287"/>
      <point x="461" y="332" type="curve" smooth="yes"/>
      <point x="461" y="393"/>
      <point x="410" y="436"/>
      <point x="337" y="436" type="curve" smooth="yes"/>
      <point x="273" y="436"/>
      <point x="187" y="397"/>
      <point x="129" y="342" type="curve"/>
      <point x="140" y="327" type="line"/>
      <point x="174" y="360"/>
      <point x="234" y="383"/>
      <point x="286" y="383" type="curve" smooth="yes"/>
      <point x="340" y="383"/>
      <point x="379" y="342"/>
      <point x="379" y="299" type="curve"/>
      <point x="384" y="224"/>
      <point x="384" y="159"/>
      <point x="379" y="84" type="curve"/>
      <point x="379" y="46"/>
      <point x="364" y="16"/>
      <point x="344" y="16" type="curve" smooth="yes"/>
      <point x="307" y="16" type="line"/>
    </contour>
    <contour>
      <point x="18" y="0" type="line"/>
      <point x="248" y="0" type="line"/>
      <point x="248" y="16" type="line"/>
      <point x="235" y="16"/>
      <point x="219" y="16"/>
      <point x="210" y="16" type="curve" smooth="yes"/>
      <point x="186" y="16"/>
      <point x="170" y="36"/>
      <point x="170" y="64" type="curve" smooth="yes"/>
      <point x="167" y="632" type="line"/>
      <point x="168" y="700" type="line"/>
      <point x="163" y="708" type="line"/>
      <point x="120" y="691"/>
      <point x="66" y="673"/>
      <point x="26" y="663" type="curve"/>
      <point x="26" y="657" type="line"/>
      <point x="62" y="657"/>
      <point x="86" y="639"/>
      <point x="86" y="614" type="curve" smooth="yes"/>
      <point x="91" y="420"/>
      <point x="91" y="246"/>
      <point x="86" y="72" type="curve" smooth="yes"/>
      <point x="86" y="39"/>
      <point x="71" y="16"/>
      <point x="48" y="16" type="curve" smooth="yes"/>
      <point x="18" y="16" type="line"/>
    </contour>
  </outline>
</glyph>
<glyph name="i" format="2">
  <advance width="268"/>
  <unicode hex="0069"/>
  <anchor x="134" y="0" name="bottom"/>
  <outline>
    <contour>
      <point x="46" y="0" type="line"/>
      <point x="254" y="0" type="line"/>
      <point x="254" y="18" type="line"/>
      <point x="246" y="18"/>
      <point x="216" y="18"/>
      <point x="209" y="18" type="curve" smooth="yes"/>
      <point x="193" y="18"/>
      <point x="180" y="30"/>
      <point x="180" y="47" type="curve" smooth="yes"/>
      <point x="180" y="342" type="line"/>
      <point x="185" y="425" type="line"/>
      <point x="176" y="441" type="line"/>
      <point x="139" y="418"/>
      <point x="85" y="395"/>
      <point x="44" y="386" type="curve"/>
      <point x="44" y="378" type="line"/>
      <point x="77" y="378"/>
      <point x="101" y="356"/>
      <point x="101" y="324" type="curve" smooth="yes"/>
      <point x="106" y="234"/>
      <point x="106" y="133"/>
      <point x="101" y="43" type="curve" smooth="yes"/>
      <point x="101" y="28"/>
      <point x="86" y="18"/>
      <point x="65" y="18" type="curve" smooth="yes"/>
      <point x="46" y="18" type="line"/>
    </contour>
    <contour>
      <point x="141" y="603" type="curve" smooth="yes"/>
      <point x="165" y="603"/>
      <point x="181" y="619"/>
      <point x="181" y="641" type="curve" smooth="yes"/>
      <point x="181" y="663"/>
      <point x="165" y="679"/>
      <point x="141" y="679" type="curve" smooth="yes"/>
      <point x="117" y="679"/>
      <point x="101" y="663"/>
      <point x="101" y="641" type="curve" smooth="yes"/>
      <point x="101" y="619"/>
      <point x="117" y="603"/>
    </contour>
  </outline>
</glyph>
<glyph name="j" format="2">
  <advance width="259"/>
  <unicode hex="006A"/>
  <outline>
    <contour>
      <point x="-23" y="-243" type="curve"/>
      <point x="2" y="-262" type="line"/>
      <point x="107" y="-180"/>
      <point x="180" y="-76"/>
      <point x="180" y="-11" type="curve" smooth="yes"/>
      <point x="180" y="36"/>
      <point x="180" y="362"/>
      <point x="180" y="380" type="curve"/>
      <point x="184" y="425" type="line"/>
      <point x="181" y="433" type="line"/>
      <point x="43" y="395" type="line"/>
      <point x="46" y="392" type="line"/>
      <point x="78" y="392"/>
      <point x="101" y="375"/>
      <point x="101" y="351" type="curve" smooth="yes"/>
      <point x="106" y="224"/>
      <point x="106" y="88"/>
      <point x="101" y="-39" type="curve" smooth="yes"/>
      <point x="101" y="-97"/>
      <point x="50" y="-182"/>
    </contour>
    <contour>
      <point x="135" y="649" type="curve" smooth="yes"/>
      <point x="163" y="649"/>
      <point x="186" y="671"/>
      <point x="186" y="698" type="curve" smooth="yes"/>
      <point x="186" y="724"/>
      <point x="163" y="746"/>
      <point x="135" y="746" type="curve" smooth="yes"/>
      <point x="106" y="746"/>
      <point x="83" y="724"/>
      <point x="83" y="698" type="curve" smooth="yes"/>
      <point x="83" y="671"/>
      <point x="106" y="649"/>
    </contour>
  </outline>
</glyph>
<glyph name="k" format="2">
  <advance width="519"/>
  <unicode hex="006B"/>
  <anchor x="260" y="700" name="top"/>
  <anchor x="260" y="0" name="bottom"/>
  <outline>
    <contour>
      <point x="29" y="0" type="line"/>
      <point x="259" y="0" type="line"/>
      <point x="259" y="16" type="line"/>
      <point x="246" y="16"/>
      <point x="230" y="16"/>
      <point x="221" y="16" type="curve" smooth="yes"/>
      <point x="197" y="16"/>
      <point x="180" y="36"/>
      <point x="180" y="64" type="curve" smooth="yes"/>
      <point x="180" y="632" type="line"/>
      <point x="182" y="700" type="line"/>
      <point x="177" y="708" type="line"/>
      <point x="134" y="691"/>
      <point x="77" y="673"/>
      <point x="37" y="663" type="curve"/>
      <point x="37" y="657" type="line"/>
      <point x="73" y="657"/>
      <point x="99" y="639"/>
      <point x="99" y="614" type="curve" smooth="yes"/>
      <point x="104" y="440"/>
      <point x="104" y="246"/>
      <point x="99" y="72" type="curve" smooth="yes"/>
      <point x="99" y="39"/>
      <point x="82" y="16"/>
      <point x="59" y="16" type="curve" smooth="yes"/>
      <point x="29" y="16" type="line"/>
    </contour>
    <contour>
      <point x="289" y="0" type="line"/>
      <point x="522" y="0" type="line"/>
      <point x="522" y="18" type="line"/>
      <point x="517" y="18"/>
      <point x="502" y="18"/>
      <point x="497" y="18" type="curve" smooth="yes"/>
      <point x="492" y="18"/>
      <point x="449" y="25"/>
      <point x="421" y="61" type="curve" smooth="yes"/>
      <point x="256" y="280" type="line"/>
      <point x="202" y="239" type="line"/>
      <point x="250" y="182"/>
      <point x="293" y="111"/>
      <point x="333" y="46" type="curve" smooth="yes"/>
      <point x="353" y="14"/>
      <point x="338" y="18"/>
      <point x="324" y="18" type="curve" smooth="yes"/>
      <point x="289" y="18" type="line"/>
    </contour>
    <contour>
      <point x="143" y="183" type="line"/>
      <point x="393" y="377" type="line" smooth="yes"/>
      <point x="426" y="403"/>
      <point x="509" y="407"/>
      <point x="522" y="407" type="curve"/>
      <point x="522" y="425" type="line"/>
      <point x="323" y="425" type="line"/>
      <point x="323" y="407" type="line"/>
      <point x="329" y="407" type="line" smooth="yes"/>
      <point x="348" y="407"/>
      <point x="388" y="399"/>
      <point x="340" y="362" type="curve" smooth="yes"/>
      <point x="143" y="211" type="line"/>
    </contour>
  </outline>
</glyph>
<glyph name="l" format="2">
  <advance width="263"/>
  <unicode hex="006C"/>
  <anchor x="132" y="700" name="top"/>
  <anchor x="132" y="0" name="bottom"/>
  <anchor x="132" y="213" name="center"/>
  <anchor x="243" y="700" name="topright"/>
  <outline>
    <contour>
      <point x="10" y="-1" type="line"/>
      <point x="269" y="-1" type="line"/>
      <point x="269" y="17" type="line"/>
      <point x="248" y="17" type="line" smooth="yes"/>
      <point x="205" y="17"/>
      <point x="175" y="41"/>
      <point x="175" y="76" type="curve" smooth="yes"/>
      <point x="172" y="647" type="line"/>
      <point x="175" y="700" type="line"/>
      <point x="170" y="708" type="line"/>
      <point x="27" y="663" type="line"/>
      <point x="27" y="657" type="line"/>
      <point x="64" y="657"/>
      <point x="90" y="638"/>
      <point x="90" y="611" type="curve" smooth="yes"/>
      <point x="95" y="431"/>
      <point x="95" y="230"/>
      <point x="90" y="50" type="curve" smooth="yes"/>
      <point x="90" y="31"/>
      <point x="69" y="17"/>
      <point x="39" y="17" type="curve" smooth="yes"/>
      <point x="10" y="17" type="line"/>
    </contour>
  </outline>
</glyph>
<glyph name="m" format="2">
  <advance width="857"/>
  <unicode hex="006D"/>
  <anchor x="429" y="425" name="top"/>
  <anchor x="429" y="0" name="bottom"/>
  <outline>
    <contour>
      <point x="613" y="1" type="line"/>
      <point x="855" y="1" type="line"/>
      <point x="855" y="21" type="line"/>
      <point x="794" y="21" type="line" smooth="yes"/>
      <point x="780" y="21"/>
      <point x="770" y="38"/>
      <point x="770" y="53" type="curve" smooth="yes"/>
      <point x="770" y="97"/>
      <point x="767" y="288"/>
      <point x="767" y="333" type="curve" smooth="yes"/>
      <point x="767" y="394"/>
      <point x="716" y="437"/>
      <point x="643" y="437" type="curve" smooth="yes"/>
      <point x="579" y="437"/>
      <point x="493" y="398"/>
      <point x="435" y="343" type="curve"/>
      <point x="446" y="328" type="line"/>
      <point x="480" y="361"/>
      <point x="540" y="384"/>
      <point x="592" y="384" type="curve" smooth="yes"/>
      <point x="646" y="384"/>
      <point x="678" y="343"/>
      <point x="685" y="300" type="curve" smooth="yes"/>
      <point x="690" y="270"/>
      <point x="690" y="123"/>
      <point x="685" y="84" type="curve" smooth="yes"/>
      <point x="680" y="46"/>
      <point x="670" y="18"/>
      <point x="650" y="18" type="curve" smooth="yes"/>
      <point x="613" y="18" type="line"/>
    </contour>
    <contour>
      <point x="30" y="0" type="line"/>
      <point x="260" y="0" type="line"/>
      <point x="260" y="18" type="line"/>
      <point x="222" y="18" type="line" smooth="yes"/>
      <point x="198" y="18"/>
      <point x="187" y="36"/>
      <point x="187" y="64" type="curve" smooth="yes"/>
      <point x="187" y="372" type="line"/>
      <point x="183" y="425" type="line"/>
      <point x="168" y="436" type="line"/>
      <point x="129" y="418"/>
      <point x="84" y="400"/>
      <point x="59" y="392" type="curve"/>
      <point x="59" y="388" type="line"/>
      <point x="83" y="378"/>
      <point x="99" y="360"/>
      <point x="100" y="344" type="curve" smooth="yes"/>
      <point x="105" y="279"/>
      <point x="105" y="117"/>
      <point x="100" y="72" type="curve" smooth="yes"/>
      <point x="96" y="39"/>
      <point x="83" y="18"/>
      <point x="60" y="18" type="curve" smooth="yes"/>
      <point x="30" y="18" type="line"/>
    </contour>
    <contour>
      <point x="319" y="1" type="line"/>
      <point x="554" y="1" type="line"/>
      <point x="554" y="18" type="line"/>
      <point x="500" y="18" type="line" smooth="yes"/>
      <point x="486" y="18"/>
      <point x="476" y="38"/>
      <point x="476" y="53" type="curve" smooth="yes"/>
      <point x="476" y="97"/>
      <point x="473" y="288"/>
      <point x="473" y="333" type="curve" smooth="yes"/>
      <point x="473" y="394"/>
      <point x="422" y="437"/>
      <point x="349" y="437" type="curve" smooth="yes"/>
      <point x="285" y="437"/>
      <point x="199" y="398"/>
      <point x="141" y="343" type="curve"/>
      <point x="152" y="328" type="line"/>
      <point x="186" y="361"/>
      <point x="246" y="384"/>
      <point x="298" y="384" type="curve" smooth="yes"/>
      <point x="352" y="384"/>
      <point x="384" y="343"/>
      <point x="391" y="300" type="curve" smooth="yes"/>
      <point x="396" y="270"/>
      <point x="396" y="123"/>
      <point x="391" y="84" type="curve" smooth="yes"/>
      <point x="386" y="46"/>
      <point x="376" y="18"/>
      <point x="356" y="18" type="curve" smooth="yes"/>
      <point x="319" y="18" type="line"/>
    </contour>
  </outline>
</glyph>
<glyph name="n" format="2">
  <advance width="563"/>
  <unicode hex="006E"/>
  <anchor x="282" y="425" name="top"/>
  <anchor x="282" y="0" name="bottom"/>
  <outline>
    <contour>
      <point x="319" y="1" type="line"/>
      <point x="561" y="1" type="line"/>
      <point x="561" y="21" type="line"/>
      <point x="500" y="21" type="line" smooth="yes"/>
      <point x="486" y="21"/>
      <point x="476" y="37"/>
      <point x="476" y="56" type="curve" smooth="yes"/>
      <point x="473" y="333" type="line" smooth="yes"/>
      <point x="473" y="394"/>
      <point x="424" y="437"/>
      <point x="354" y="437" type="curve" smooth="yes"/>
      <point x="287" y="437"/>
      <point x="199" y="398"/>
      <point x="141" y="343" type="curve"/>
      <point x="152" y="328" type="line"/>
      <point x="186" y="361"/>
      <point x="246" y="384"/>
      <point x="298" y="384" type="curve" smooth="yes"/>
      <point x="352" y="384"/>
      <point x="384" y="343"/>
      <point x="391" y="300" type="curve" smooth="yes"/>
      <point x="396" y="270"/>
      <point x="396" y="126"/>
      <point x="391" y="87" type="curve" smooth="yes"/>
      <point x="386" y="47"/>
      <point x="376" y="18"/>
      <point x="356" y="18" type="curve" smooth="yes"/>
      <point x="319" y="18" type="line"/>
    </contour>
    <contour>
      <point x="30" y="0" type="line"/>
      <point x="260" y="0" type="line"/>
      <point x="260" y="18" type="line"/>
      <point x="222" y="18" type="line" smooth="yes"/>
      <point x="198" y="18"/>
      <point x="187" y="39"/>
      <point x="187" y="67" type="curve" smooth="yes"/>
      <point x="187" y="372" type="line"/>
      <point x="183" y="425" type="line"/>
      <point x="168" y="438" type="line"/>
      <point x="143" y="424"/>
      <point x="100" y="404"/>
      <point x="59" y="392" type="curve"/>
      <point x="59" y="388" type="line"/>
      <point x="83" y="378"/>
      <point x="99" y="360"/>
      <point x="100" y="344" type="curve" smooth="yes"/>
      <point x="105" y="279"/>
      <point x="105" y="120"/>
      <point x="100" y="75" type="curve" smooth="yes"/>
      <point x="96" y="42"/>
      <point x="83" y="18"/>
      <point x="60" y="18" type="curve" smooth="yes"/>
      <point x="30" y="18" type="line"/>
    </contour>
  </outline>
</glyph>
<glyph name="o" format="2">
  <advance width="538"/>
  <unicode hex="006F"/>
  <anchor x="269" y="425" name="top"/>
  <anchor x="269" y="0" name="bottom"/>
  <anchor x="269" y="213" name="center"/>
  <anchor x="518" y="425" name="topright"/>
  <anchor x="484" y="10" name="ogonek"/>
  <outline>
    <contour>
      <point x="265" y="-12" type="curve" smooth="yes"/>
      <point x="406" y="-12"/>
      <point x="505" y="77"/>
      <point x="505" y="216" type="curve" smooth="yes"/>
      <point x="505" y="345"/>
      <point x="406" y="437"/>
      <point x="265" y="437" type="curve" smooth="yes"/>
      <point x="129" y="437"/>
      <point x="33" y="345"/>
      <point x="33" y="216" type="curve" smooth="yes"/>
      <point x="33" y="77"/>
      <point x="129" y="-12"/>
    </contour>
    <contour>
      <point x="282" y="9" type="curve" smooth="yes"/>
      <point x="194" y="9"/>
      <point x="133" y="87"/>
      <point x="133" y="212" type="curve" smooth="yes"/>
      <point x="133" y="331"/>
      <point x="183" y="415"/>
      <point x="251" y="416" type="curve" smooth="yes"/>
      <point x="343" y="416"/>
      <point x="406" y="327"/>
      <point x="406" y="201" type="curve" smooth="yes"/>
      <point x="406" y="85"/>
      <point x="353" y="10"/>
    </contour>
  </outline>
</glyph>
<glyph name="p" format="2">
  <advance width="535"/>
  <unicode hex="0070"/>
  <anchor x="268" y="425" name="top"/>
  <anchor x="268" y="0" name="bottom"/>
  <outline>
    <contour>
      <point x="16" y="-290" type="line"/>
      <point x="300" y="-290" type="line"/>
      <point x="300" y="-272" type="line"/>
      <point x="216" y="-272" type="line" smooth="yes"/>
      <point x="190" y="-272"/>
      <point x="170" y="-255"/>
      <point x="170" y="-231" type="curve" smooth="yes"/>
      <point x="170" y="376" type="line"/>
      <point x="173" y="425" type="line"/>
      <point x="168" y="437" type="line"/>
      <point x="126" y="415"/>
      <point x="72" y="396"/>
      <point x="31" y="390" type="curve"/>
      <point x="31" y="381" type="line"/>
      <point x="66" y="381"/>
      <point x="91" y="352"/>
      <point x="91" y="310" type="curve" smooth="yes"/>
      <point x="96" y="140"/>
      <point x="96" y="-39"/>
      <point x="91" y="-209" type="curve" smooth="yes"/>
      <point x="91" y="-246"/>
      <point x="68" y="-272"/>
      <point x="35" y="-272" type="curve" smooth="yes"/>
      <point x="16" y="-272" type="line"/>
    </contour>
    <contour>
      <point x="262" y="-12" type="curve" smooth="yes"/>
      <point x="403" y="-12"/>
      <point x="502" y="87"/>
      <point x="502" y="241" type="curve" smooth="yes"/>
      <point x="502" y="353"/>
      <point x="422" y="437"/>
      <point x="310" y="437" type="curve" smooth="yes"/>
      <point x="252" y="437"/>
      <point x="175" y="405"/>
      <point x="124" y="360" type="curve"/>
      <point x="142" y="349" type="line"/>
      <point x="172" y="377"/>
      <point x="219" y="397"/>
      <point x="254" y="397" type="curve" smooth="yes"/>
      <point x="337" y="397"/>
      <point x="406" y="314"/>
      <point x="406" y="217" type="curve" smooth="yes"/>
      <point x="406" y="95"/>
      <point x="336" y="16"/>
      <point x="253" y="16" type="curve" smooth="yes"/>
      <point x="212" y="16"/>
      <point x="170" y="37"/>
      <point x="151" y="67" type="curve"/>
      <point x="151" y="34" type="line"/>
      <point x="181" y="7"/>
      <point x="227" y="-12"/>
    </contour>
  </outline>
</glyph>
<glyph name="q" format="2">
  <advance width="543"/>
  <unicode hex="0071"/>
  <anchor x="272" y="425" name="top"/>
  <anchor x="272" y="0" name="bottom"/>
  <outline>
    <contour>
      <point x="251" y="-12" type="curve" smooth="yes"/>
      <point x="307" y="-12"/>
      <point x="376" y="6"/>
      <point x="418" y="32" type="curve"/>
      <point x="410" y="51" type="line"/>
      <point x="376" y="29"/>
      <point x="326" y="18"/>
      <point x="291" y="18" type="curve" smooth="yes"/>
      <point x="199" y="18"/>
      <point x="131" y="107"/>
      <point x="131" y="239" type="curve" smooth="yes"/>
      <point x="131" y="332"/>
      <point x="184" y="407"/>
      <point x="254" y="407" type="curve" smooth="yes"/>
      <point x="328" y="407"/>
      <point x="397" y="364"/>
      <point x="420" y="327" type="curve"/>
      <point x="420" y="407" type="line"/>
      <point x="392" y="425"/>
      <point x="342" y="438"/>
      <point x="301" y="438" type="curve" smooth="yes"/>
      <point x="144" y="438"/>
      <point x="33" y="346"/>
      <point x="33" y="215" type="curve" smooth="yes"/>
      <point x="33" y="76"/>
      <point x="123" y="-12"/>
    </contour>
    <contour>
      <point x="294" y="-282" type="line"/>
      <point x="539" y="-282" type="line"/>
      <point x="539" y="-265" type="line"/>
      <point x="524" y="-265" type="line" smooth="yes"/>
      <point x="487" y="-265"/>
      <point x="461" y="-246"/>
      <point x="461" y="-220" type="curve" smooth="yes"/>
      <point x="456" y="-40"/>
      <point x="456" y="140"/>
      <point x="461" y="320" type="curve" smooth="yes"/>
      <point x="461" y="369"/>
      <point x="465" y="411"/>
      <point x="470" y="423" type="curve"/>
      <point x="463" y="434" type="line"/>
      <point x="386" y="400" type="line"/>
      <point x="386" y="-220" type="line" smooth="yes"/>
      <point x="386" y="-246"/>
      <point x="361" y="-264"/>
      <point x="332" y="-264" type="curve" smooth="yes"/>
      <point x="294" y="-264" type="line"/>
    </contour>
  </outline>
</glyph>
<glyph name="r" format="2">
  <advance width="402"/>
  <unicode hex="0072"/>
  <anchor x="201" y="425" name="top"/>
  <anchor x="201" y="0" name="bottom"/>
  <outline>
    <contour>
      <point x="26" y="0" type="line"/>
      <point x="263" y="0" type="line"/>
      <point x="263" y="18" type="line"/>
      <point x="222" y="18" type="line" smooth="yes"/>
      <point x="199" y="18"/>
      <point x="178" y="26"/>
      <point x="178" y="37" type="curve" smooth="yes"/>
      <point x="178" y="307" type="line" smooth="yes"/>
      <point x="178" y="346"/>
      <point x="219" y="370"/>
      <point x="256" y="373" type="curve" smooth="yes"/>
      <point x="314" y="377"/>
      <point x="305" y="318"/>
      <point x="331" y="318" type="curve" smooth="yes"/>
      <point x="345" y="318"/>
      <point x="399" y="349"/>
      <point x="399" y="382" type="curve" smooth="yes"/>
      <point x="399" y="408"/>
      <point x="375" y="437"/>
      <point x="341" y="437" type="curve" smooth="yes"/>
      <point x="303" y="437"/>
      <point x="219" y="394"/>
      <point x="168" y="352" type="curve"/>
      <point x="192" y="375" type="line"/>
      <point x="198" y="432" type="line"/>
      <point x="188" y="443" type="line"/>
      <point x="148" y="424"/>
      <point x="87" y="403"/>
      <point x="41" y="392" type="curve"/>
      <point x="41" y="375" type="line"/>
      <point x="74" y="375"/>
      <point x="100" y="354"/>
      <point x="100" y="324" type="curve" smooth="yes"/>
      <point x="105" y="237"/>
      <point x="105" y="147"/>
      <point x="100" y="60" type="curve" smooth="yes"/>
      <point x="100" y="35"/>
      <point x="82" y="18"/>
      <point x="60" y="18" type="curve" smooth="yes"/>
      <point x="26" y="18" type="line"/>
    </contour>
  </outline>
</glyph>
<glyph name="s" format="2">
  <advance width="349"/>
  <unicode hex="0073"/>
  <anchor x="175" y="425" name="top"/>
  <anchor x="175" y="0" name="bottom"/>
  <outline>
    <contour>
      <point x="153" y="-15" type="curve" smooth="yes"/>
      <point x="248" y="-15"/>
      <point x="316" y="52"/>
      <point x="316" y="147" type="curve" smooth="yes"/>
      <point x="316" y="277"/>
      <point x="83" y="244"/>
      <point x="83" y="350" type="curve" smooth="yes"/>
      <point x="83" y="396"/>
      <point x="127" y="408"/>
      <point x="175" y="408" type="curve" smooth="yes"/>
      <point x="232" y="408"/>
      <point x="254" y="393"/>
      <point x="254" y="356" type="curve" smooth="yes"/>
      <point x="254" y="350"/>
      <point x="252" y="341"/>
      <point x="252" y="336" type="curve" smooth="yes"/>
      <point x="252" y="333"/>
      <point x="261" y="332"/>
      <point x="288" y="332" type="curve" smooth="yes"/>
      <point x="297" y="332"/>
      <point x="304" y="342"/>
      <point x="304" y="355" type="curve" smooth="yes"/>
      <point x="304" y="405"/>
      <point x="258" y="441"/>
      <point x="194" y="441" type="curve" smooth="yes"/>
      <point x="100" y="441"/>
      <point x="34" y="391"/>
      <point x="34" y="296" type="curve" smooth="yes"/>
      <point x="34" y="153"/>
      <point x="260" y="194"/>
      <point x="260" y="104" type="curve" smooth="yes"/>
      <point x="260" y="53"/>
      <point x="219" y="18"/>
      <point x="172" y="18" type="curve" smooth="yes"/>
      <point x="108" y="18"/>
      <point x="79" y="40"/>
      <point x="79" y="87" type="curve" smooth="yes"/>
      <point x="79" y="94"/>
      <point x="81" y="98"/>
      <point x="81" y="107" type="curve" smooth="yes"/>
      <point x="81" y="114"/>
      <point x="73" y="119"/>
      <point x="47" y="119" type="curve" smooth="yes"/>
      <point x="39" y="119"/>
      <point x="33" y="108"/>
      <point x="33" y="93" type="curve" smooth="yes"/>
      <point x="33" y="30"/>
      <point x="83" y="-15"/>
    </contour>
  </outline>
</glyph>
<glyph name="t" format="2">
  <advance width="343"/>
  <unicode hex="0074"/>
  <anchor x="172" y="504" name="top"/>
  <anchor x="172" y="0" name="bottom"/>
  <anchor x="172" y="213" name="center"/>
  <anchor x="323" y="700" name="topright"/>
  <outline>
    <contour>
      <point x="199" y="-12" type="curve" smooth="yes"/>
      <point x="262" y="-12"/>
      <point x="316" y="17"/>
      <point x="337" y="67" type="curve"/>
      <point x="322" y="80" type="line"/>
      <point x="300" y="53"/>
      <point x="264" y="34"/>
      <point x="234" y="34" type="curve" smooth="yes"/>
      <point x="191" y="34"/>
      <point x="161" y="68"/>
      <point x="161" y="115" type="curve" smooth="yes"/>
      <point x="161" y="377" type="line"/>
      <point x="318" y="377" type="line"/>
      <point x="318" y="425" type="line"/>
      <point x="164" y="425" type="line"/>
      <point x="164" y="492" type="line"/>
      <point x="150" y="504" type="line"/>
      <point x="112" y="453"/>
      <point x="59" y="408"/>
      <point x="21" y="395" type="curve"/>
      <point x="21" y="377" type="line"/>
      <point x="78" y="377" type="line"/>
      <point x="81" y="278"/>
      <point x="78" y="177"/>
      <point x="78" y="80" type="curve" smooth="yes"/>
      <point x="78" y="25"/>
      <point x="129" y="-12"/>
    </contour>
  </outline>
</glyph>
<glyph name="u" format="2">
  <advance width="547"/>
  <unicode hex="0075"/>
  <anchor x="274" y="425" name="top"/>
  <anchor x="274" y="0" name="bottom"/>
  <anchor x="492" y="10" name="ogonek"/>
  <anchor x="527" y="425" name="topright"/>
  <outline>
    <contour>
      <point x="208" y="-14" type="curve" smooth="yes"/>
      <point x="261" y="-14"/>
      <point x="345" y="21"/>
      <point x="411" y="78" type="curve"/>
      <point x="404" y="100" type="line"/>
      <point x="352" y="61"/>
      <point x="295" y="38"/>
      <point x="267" y="38" type="curve" smooth="yes"/>
      <point x="210" y="38"/>
      <point x="169" y="71"/>
      <point x="167" y="108" type="curve" smooth="yes"/>
      <point x="162" y="204"/>
      <point x="162" y="329"/>
      <point x="167" y="425" type="curve"/>
      <point x="9" y="425" type="line"/>
      <point x="9" y="407" type="line"/>
      <point x="17" y="407"/>
      <point x="21" y="407"/>
      <point x="33" y="407" type="curve" smooth="yes"/>
      <point x="65" y="407"/>
      <point x="88" y="385"/>
      <point x="88" y="353" type="curve" smooth="yes"/>
      <point x="88" y="266"/>
      <point x="88" y="178"/>
      <point x="88" y="91" type="curve" smooth="yes"/>
      <point x="88" y="35"/>
      <point x="138" y="-14"/>
    </contour>
    <contour>
      <point x="371" y="-11" type="line"/>
      <point x="536" y="17" type="line"/>
      <point x="531" y="34" type="line"/>
      <point x="514" y="30"/>
      <point x="490" y="28"/>
      <point x="473" y="28" type="curve" smooth="yes"/>
      <point x="460" y="28"/>
      <point x="450" y="42"/>
      <point x="450" y="61" type="curve" smooth="yes"/>
      <point x="450" y="80"/>
      <point x="450" y="344"/>
      <point x="450" y="362" type="curve" smooth="yes"/>
      <point x="454" y="413" type="line"/>
      <point x="447" y="425" type="line"/>
      <point x="261" y="425" type="line"/>
      <point x="261" y="407" type="line"/>
      <point x="275" y="407"/>
      <point x="290" y="407"/>
      <point x="303" y="407" type="curve" smooth="yes"/>
      <point x="342" y="407"/>
      <point x="371" y="387"/>
      <point x="372" y="358" type="curve" smooth="yes"/>
      <point x="377" y="259"/>
      <point x="377" y="160"/>
      <point x="372" y="61" type="curve"/>
      <point x="365" y="0" type="line"/>
    </contour>
  </outline>
</glyph>
<glyph name="v" format="2">
  <advance width="498"/>
  <unicode hex="0076"/>
  <anchor x="249" y="425" name="top"/>
  <anchor x="249" y="0" name="bottom"/>
  <outline>
    <contour>
      <point x="227" y="-15" type="curve"/>
      <point x="238" y="-15" type="line"/>
      <point x="289" y="115"/>
      <point x="376" y="323"/>
      <point x="392" y="365" type="curve" smooth="yes"/>
      <point x="408" y="407"/>
      <point x="488" y="407"/>
      <point x="501" y="407" type="curve"/>
      <point x="501" y="425" type="line"/>
      <point x="302" y="425" type="line"/>
      <point x="302" y="407" type="line"/>
      <point x="328" y="407" type="line" smooth="yes"/>
      <point x="368" y="407"/>
      <point x="380" y="384"/>
      <point x="366" y="352" type="curve" smooth="yes"/>
      <point x="251" y="101" type="line"/>
      <point x="220" y="182"/>
      <point x="172" y="339"/>
      <point x="156" y="381" type="curve" smooth="yes"/>
      <point x="144" y="413"/>
      <point x="181" y="407"/>
      <point x="195" y="407" type="curve" smooth="yes"/>
      <point x="230" y="407" type="line"/>
      <point x="230" y="425" type="line"/>
      <point x="-3" y="425" type="line"/>
      <point x="-3" y="407" type="line"/>
      <point x="2" y="407"/>
      <point x="17" y="407"/>
      <point x="22" y="407" type="curve" smooth="yes"/>
      <point x="27" y="407"/>
      <point x="59" y="405"/>
      <point x="73" y="364" type="curve"/>
      <point x="128" y="239"/>
      <point x="180" y="112"/>
    </contour>
  </outline>
</glyph>
<glyph name="w" format="2">
  <advance width="754"/>
  <unicode hex="0077"/>
  <anchor x="377" y="425" name="top"/>
  <anchor x="377" y="0" name="bottom"/>
  <outline>
    <contour>
      <point x="73" y="364" type="curve"/>
      <point x="242" y="-15" type="line"/>
      <point x="258" y="-15" type="line"/>
      <point x="309" y="115"/>
      <point x="376" y="323"/>
      <point x="392" y="365" type="curve" smooth="yes"/>
      <point x="408" y="407"/>
      <point x="468" y="407"/>
      <point x="481" y="407" type="curve"/>
      <point x="481" y="425" type="line"/>
      <point x="302" y="425" type="line"/>
      <point x="302" y="407" type="line"/>
      <point x="307" y="407"/>
      <point x="321" y="407"/>
      <point x="328" y="407" type="curve" smooth="yes"/>
      <point x="347" y="407"/>
      <point x="384" y="410"/>
      <point x="366" y="352" type="curve" smooth="yes"/>
      <point x="291" y="112" type="line"/>
      <point x="166" y="383" type="line"/>
      <point x="154" y="415"/>
      <point x="181" y="407"/>
      <point x="195" y="407" type="curve" smooth="yes"/>
      <point x="230" y="407" type="line"/>
      <point x="230" y="425" type="line"/>
      <point x="-3" y="425" type="line"/>
      <point x="-3" y="407" type="line"/>
      <point x="2" y="407"/>
      <point x="17" y="407"/>
      <point x="22" y="407" type="curve" smooth="yes"/>
      <point x="27" y="407"/>
      <point x="59" y="405"/>
    </contour>
    <contour>
      <point x="332" y="364" type="curve" smooth="yes"/>
      <point x="468" y="-15" type="line"/>
      <point x="484" y="-15" type="line"/>
      <point x="535" y="115"/>
      <point x="632" y="323"/>
      <point x="648" y="365" type="curve" smooth="yes"/>
      <point x="664" y="407"/>
      <point x="744" y="407"/>
      <point x="757" y="407" type="curve"/>
      <point x="757" y="425" type="line"/>
      <point x="558" y="425" type="line"/>
      <point x="558" y="407" type="line"/>
      <point x="563" y="407"/>
      <point x="577" y="407"/>
      <point x="584" y="407" type="curve" smooth="yes"/>
      <point x="622" y="407"/>
      <point x="637" y="384"/>
      <point x="622" y="352" type="curve" smooth="yes"/>
      <point x="510" y="108" type="line"/>
      <point x="417" y="379" type="line" smooth="yes"/>
      <point x="405" y="411"/>
      <point x="437" y="407"/>
      <point x="451" y="407" type="curve" smooth="yes"/>
      <point x="486" y="407" type="line"/>
      <point x="486" y="425" type="line"/>
      <point x="293" y="425" type="line"/>
      <point x="293" y="407" type="line"/>
      <point x="298" y="407"/>
      <point x="296" y="407"/>
      <point x="301" y="407" type="curve" smooth="yes"/>
      <point x="306" y="407"/>
      <point x="318" y="405"/>
    </contour>
  </outline>
</glyph>
<glyph name="x" format="2">
  <advance width="498"/>
  <unicode hex="0078"/>
  <anchor x="249" y="425" name="top"/>
  <anchor x="249" y="0" name="bottom"/>
  <outline>
    <contour>
      <point x="73" y="364" type="curve" smooth="yes"/>
      <point x="207" y="211" type="line"/>
      <point x="301" y="211" type="line"/>
      <point x="161" y="379" type="line" smooth="yes"/>
      <point x="138" y="407"/>
      <point x="181" y="407"/>
      <point x="195" y="407" type="curve" smooth="yes"/>
      <point x="230" y="407" type="line"/>
      <point x="230" y="425" type="line"/>
      <point x="-3" y="425" type="line"/>
      <point x="-3" y="407" type="line"/>
      <point x="2" y="407"/>
      <point x="17" y="407"/>
      <point x="22" y="407" type="curve" smooth="yes"/>
      <point x="27" y="407"/>
      <point x="44" y="397"/>
    </contour>
    <contour>
      <point x="-3" y="18" type="curve"/>
      <point x="-3" y="0" type="line"/>
      <point x="196" y="0" type="line"/>
      <point x="196" y="18" type="line"/>
      <point x="191" y="18"/>
      <point x="187" y="18"/>
      <point x="180" y="18" type="curve" smooth="yes"/>
      <point x="161" y="18"/>
      <point x="110" y="15"/>
      <point x="149" y="63" type="curve" smooth="yes"/>
      <point x="267" y="212" type="line"/>
      <point x="235" y="212" type="line"/>
      <point x="116" y="60" type="line" smooth="yes"/>
      <point x="89" y="24"/>
      <point x="10" y="18"/>
    </contour>
    <contour>
      <point x="268" y="0" type="line"/>
      <point x="501" y="0" type="line"/>
      <point x="501" y="18" type="line"/>
      <point x="496" y="18"/>
      <point x="481" y="18"/>
      <point x="476" y="18" type="curve" smooth="yes"/>
      <point x="471" y="18"/>
      <point x="452" y="27"/>
      <point x="425" y="61" type="curve" smooth="yes"/>
      <point x="301" y="211" type="line"/>
      <point x="207" y="211" type="line"/>
      <point x="337" y="46" type="line" smooth="yes"/>
      <point x="359" y="18"/>
      <point x="317" y="18"/>
      <point x="303" y="18" type="curve" smooth="yes"/>
      <point x="268" y="18" type="line"/>
    </contour>
    <contour>
      <point x="349" y="362" type="curve" smooth="yes"/>
      <point x="239" y="217" type="line"/>
      <point x="271" y="217" type="line"/>
      <point x="382" y="365" type="line" smooth="yes"/>
      <point x="409" y="402"/>
      <point x="488" y="407"/>
      <point x="501" y="407" type="curve"/>
      <point x="501" y="425" type="line"/>
      <point x="302" y="425" type="line"/>
      <point x="302" y="407" type="line"/>
      <point x="307" y="407"/>
      <point x="311" y="407"/>
      <point x="318" y="407" type="curve" smooth="yes"/>
      <point x="337" y="407"/>
      <point x="385" y="411"/>
    </contour>
  </outline>
</glyph>
<glyph name="y" format="2">
  <advance width="489"/>
  <unicode hex="0079"/>
  <anchor x="245" y="425" name="top"/>
  <anchor x="245" y="0" name="bottom"/>
  <outline>
    <contour>
      <point x="109" y="-278" type="curve" smooth="yes"/>
      <point x="149" y="-278"/>
      <point x="190" y="-243"/>
      <point x="208" y="-193" type="curve" smooth="yes"/>
      <point x="243" y="-96"/>
      <point x="259" y="-64"/>
      <point x="287" y="13" type="curve" smooth="yes"/>
      <point x="415" y="359" type="line" smooth="yes"/>
      <point x="426" y="388"/>
      <point x="458" y="409"/>
      <point x="492" y="409" type="curve"/>
      <point x="492" y="425" type="line"/>
      <point x="299" y="425" type="line"/>
      <point x="299" y="407" type="line"/>
      <point x="343" y="407" type="line" smooth="yes"/>
      <point x="376" y="407"/>
      <point x="378" y="382"/>
      <point x="364" y="347" type="curve" smooth="yes"/>
      <point x="267" y="89" type="line"/>
      <point x="168" y="352" type="line" smooth="yes"/>
      <point x="157" y="384"/>
      <point x="174" y="407"/>
      <point x="214" y="407" type="curve" smooth="yes"/>
      <point x="227" y="407" type="line"/>
      <point x="227" y="425" type="line"/>
      <point x="-3" y="425" type="line"/>
      <point x="-3" y="407" type="line"/>
      <point x="12" y="407" type="line" smooth="yes"/>
      <point x="31" y="407"/>
      <point x="50" y="396"/>
      <point x="57" y="381" type="curve" smooth="yes"/>
      <point x="94" y="304"/>
      <point x="171" y="138"/>
      <point x="245" y="-36" type="curve"/>
      <point x="257" y="69" type="line"/>
      <point x="241" y="-17"/>
      <point x="201" y="-124"/>
      <point x="201" y="-124" type="curve"/>
      <point x="189" y="-163"/>
      <point x="160" y="-190"/>
      <point x="131" y="-190" type="curve" smooth="yes"/>
      <point x="103" y="-190"/>
      <point x="112" y="-176"/>
      <point x="89" y="-176" type="curve" smooth="yes"/>
      <point x="68" y="-176"/>
      <point x="53" y="-193"/>
      <point x="53" y="-217" type="curve" smooth="yes"/>
      <point x="53" y="-253"/>
      <point x="76" y="-278"/>
    </contour>
  </outline>
</glyph>
<glyph name="z" format="2">
  <advance width="372"/>
  <unicode hex="007A"/>
  <anchor x="186" y="425" name="top"/>
  <anchor x="186" y="0" name="bottom"/>
  <anchor x="186" y="213" name="center"/>
  <outline>
    <contour>
      <point x="272" y="385" type="curve" smooth="yes"/>
      <point x="1" y="0" type="line"/>
      <point x="174" y="0" type="line"/>
      <point x="174" y="20" type="line"/>
      <point x="130" y="20" type="line" smooth="yes"/>
      <point x="122" y="20"/>
      <point x="120" y="29"/>
      <point x="126" y="41" type="curve"/>
      <point x="200" y="157"/>
      <point x="282" y="269"/>
      <point x="364" y="383" type="curve"/>
      <point x="364" y="423" type="line"/>
      <point x="62" y="423" type="line"/>
      <point x="23" y="277" type="line"/>
      <point x="57" y="269" type="line"/>
      <point x="78" y="342"/>
      <point x="110" y="403"/>
      <point x="135" y="403" type="curve" smooth="yes"/>
      <point x="268" y="403" type="line" smooth="yes"/>
      <point x="277" y="403"/>
      <point x="279" y="396"/>
    </contour>
    <contour>
      <point x="29" y="0" type="line"/>
      <point x="354" y="0" type="line"/>
      <point x="387" y="143" type="line"/>
      <point x="353" y="150" type="line"/>
      <point x="343" y="80"/>
      <point x="306" y="20"/>
      <point x="264" y="20" type="curve" smooth="yes"/>
      <point x="211" y="20" type="line"/>
      <point x="75" y="20" type="line"/>
      <point x="29" y="30" type="line"/>
    </contour>
  </outline>
</glyph>
<glyph name="AE" format="2">
  <advance width="982"/>
  <unicode hex="00C6"/>
  <anchor x="491" y="700" name="top"/>
  <anchor x="491" y="0" name="bottom"/>
  <outline>
    <contour>
      <point x="687" y="-2" type="curve" smooth="yes"/>
      <point x="847" y="0" type="line"/>
      <point x="940" y="131" type="line"/>
      <point x="929" y="149" type="line"/>
      <point x="867" y="82"/>
      <point x="802" y="24"/>
      <point x="773" y="24" type="curve" smooth="yes"/>
      <point x="730" y="24"/>
      <point x="662" y="24"/>
      <point x="641" y="24" type="curve" smooth="yes"/>
      <point x="604" y="24"/>
      <point x="577" y="46"/>
      <point x="577" y="76" type="curve" smooth="yes"/>
      <point x="577" y="106"/>
      <point x="577" y="633"/>
      <point x="577" y="645" type="curve" smooth="yes"/>
      <point x="577" y="663"/>
      <point x="601" y="675"/>
      <point x="634" y="675" type="curve" smooth="yes"/>
      <point x="654" y="675"/>
      <point x="698" y="675"/>
      <point x="715" y="675" type="curve" smooth="yes"/>
      <point x="756" y="675"/>
      <point x="824" y="613"/>
      <point x="866" y="539" type="curve"/>
      <point x="880" y="552" type="line"/>
      <point x="813" y="700" type="line"/>
      <point x="714" y="700"/>
      <point x="627" y="698"/>
      <point x="528" y="698" type="curve" smooth="yes"/>
      <point x="480" y="698"/>
      <point x="321" y="700"/>
      <point x="268" y="700" type="curve"/>
      <point x="268" y="682" type="line"/>
      <point x="319" y="682"/>
      <point x="392" y="682"/>
      <point x="420" y="682" type="curve" smooth="yes"/>
      <point x="453" y="682"/>
      <point x="477" y="671"/>
      <point x="477" y="643" type="curve" smooth="yes"/>
      <point x="477" y="569"/>
      <point x="477" y="137"/>
      <point x="477" y="96" type="curve" smooth="yes"/>
      <point x="477" y="50"/>
      <point x="456" y="18"/>
      <point x="426" y="18" type="curve" smooth="yes"/>
      <point x="394" y="18" type="line"/>
      <point x="394" y="0" type="line"/>
      <point x="435" y="0"/>
      <point x="487" y="2"/>
      <point x="523" y="2" type="curve" smooth="yes"/>
      <point x="559" y="2"/>
      <point x="647" y="-2"/>
    </contour>
    <contour>
      <point x="15" y="0" type="line"/>
      <point x="301" y="0" type="line"/>
      <point x="301" y="18" type="line"/>
      <point x="283" y="18" type="line" smooth="yes"/>
      <point x="245" y="18"/>
      <point x="217" y="48"/>
      <point x="231" y="88" type="curve" smooth="yes"/>
      <point x="458" y="686" type="line"/>
      <point x="434" y="689" type="line"/>
      <point x="285" y="371"/>
      <point x="207" y="202"/>
      <point x="181" y="146" type="curve" smooth="yes"/>
      <point x="147" y="73"/>
      <point x="91" y="18"/>
      <point x="42" y="18" type="curve" smooth="yes"/>
      <point x="15" y="18" type="line"/>
    </contour>
    <contour>
      <point x="770" y="200" type="curve"/>
      <point x="792" y="200" type="line"/>
      <point x="788" y="271"/>
      <point x="788" y="371"/>
      <point x="792" y="442" type="curve"/>
      <point x="769" y="442" type="line"/>
      <point x="769" y="379"/>
      <point x="743" y="324"/>
      <point x="706" y="324" type="curve" smooth="yes"/>
      <point x="287" y="324" type="line"/>
      <point x="286" y="309" type="line"/>
      <point x="349" y="309"/>
      <point x="681" y="309"/>
      <point x="706" y="309" type="curve" smooth="yes"/>
      <point x="743" y="309"/>
      <point x="770" y="261"/>
    </contour>
  </outline>
</glyph>
<glyph name="germandbls" format="2">
  <advance width="579"/>
  <unicode hex="00DF"/>
  <anchor x="290" y="700" name="top"/>
  <anchor x="290" y="0" name="bottom"/>
  <outline>
    <contour>
      <point x="7" y="0" type="line"/>
      <point x="176" y="0" type="line"/>
      <point x="179" y="59" type="line"/>
      <point x="179" y="521" type="line" smooth="yes"/>
      <point x="179" y="594"/>
      <point x="202" y="678"/>
      <point x="230" y="702" type="curve" smooth="yes"/>
      <point x="244" y="714"/>
      <point x="265" y="726"/>
      <point x="287" y="726" type="curve"/>
      <point x="354" y="779" type="line"/>
      <point x="313" y="779"/>
      <point x="245" y="746"/>
      <point x="190" y="699" type="curve" smooth="yes"/>
      <point x="137" y="655"/>
      <point x="100" y="572"/>
      <point x="100" y="502" type="curve" smooth="yes"/>
      <point x="100" y="439"/>
      <point x="69" y="394"/>
      <point x="24" y="394" type="curve" smooth="yes"/>
      <point x="12" y="394" type="line"/>
      <point x="12" y="376" type="line"/>
      <point x="97" y="376" type="line"/>
      <point x="97" y="67" type="line" smooth="yes"/>
      <point x="97" y="38"/>
      <point x="78" y="18"/>
      <point x="52" y="18" type="curve" smooth="yes"/>
      <point x="7" y="18" type="line"/>
    </contour>
    <contour>
      <point x="383" y="-12" type="curve" smooth="yes"/>
      <point x="478" y="-12"/>
      <point x="546" y="49"/>
      <point x="546" y="136" type="curve" smooth="yes"/>
      <point x="546" y="249"/>
      <point x="343" y="258"/>
      <point x="343" y="354" type="curve" smooth="yes"/>
      <point x="343" y="420"/>
      <point x="497" y="514"/>
      <point x="497" y="612" type="curve" smooth="yes"/>
      <point x="497" y="710"/>
      <point x="438" y="779"/>
      <point x="354" y="779" type="curve"/>
      <point x="287" y="726" type="line"/>
      <point x="356" y="726"/>
      <point x="405" y="661"/>
      <point x="405" y="568" type="curve" smooth="yes"/>
      <point x="405" y="445"/>
      <point x="284" y="424"/>
      <point x="284" y="307" type="curve" smooth="yes"/>
      <point x="284" y="173"/>
      <point x="480" y="180"/>
      <point x="480" y="100" type="curve" smooth="yes"/>
      <point x="480" y="46"/>
      <point x="447" y="8"/>
      <point x="400" y="8" type="curve" smooth="yes"/>
      <point x="341" y="8"/>
      <point x="299" y="41"/>
      <point x="299" y="88" type="curve" smooth="yes"/>
      <point x="299" y="95"/>
      <point x="301" y="101"/>
      <point x="301" y="110" type="curve" smooth="yes"/>
      <point x="301" y="117"/>
      <point x="291" y="122"/>
      <point x="277" y="122" type="curve" smooth="yes"/>
      <point x="269" y="122"/>
      <point x="263" y="111"/>
      <point x="263" y="96" type="curve" smooth="yes"/>
      <point x="263" y="33"/>
      <point x="313" y="-12"/>
    </contour>
  </outline>
</glyph>
<glyph name="ae" format="2">
  <advance width="672"/>
  <unicode hex="00E6"/>
  <anchor x="336" y="425" name="top"/>
  <anchor x="336" y="0" name="bottom"/>
  <outline>
    <contour>
      <point x="151" y="-15" type="curve" smooth="yes"/>
      <point x="207" y="-15"/>
      <point x="253" y="46"/>
      <point x="325" y="127" type="curve" smooth="yes"/>
      <point x="314" y="115" type="line" smooth="yes"/>
      <point x="271" y="73"/>
      <point x="216" y="31"/>
      <point x="187" y="31" type="curve" smooth="yes"/>
      <point x="150" y="31"/>
      <point x="124" y="57"/>
      <point x="124" y="94" type="curve" smooth="yes"/>
      <point x="124" y="137"/>
      <point x="138" y="187"/>
      <point x="178" y="195" type="curve"/>
      <point x="619" y="313" type="line" smooth="yes"/>
      <point x="628" y="316"/>
      <point x="635" y="323"/>
      <point x="635" y="331" type="curve" smooth="yes"/>
      <point x="635" y="397"/>
      <point x="586" y="433"/>
      <point x="517" y="433" type="curve" smooth="yes"/>
      <point x="435" y="433"/>
      <point x="354" y="395"/>
      <point x="320" y="326" type="curve"/>
      <point x="351" y="352" type="line"/>
      <point x="322" y="402"/>
      <point x="271" y="429"/>
      <point x="225" y="429" type="curve" smooth="yes"/>
      <point x="192" y="429"/>
      <point x="149" y="411"/>
      <point x="120" y="388" type="curve"/>
      <point x="76" y="348"/>
      <point x="44" y="307"/>
      <point x="44" y="290" type="curve" smooth="yes"/>
      <point x="44" y="265"/>
      <point x="61" y="248"/>
      <point x="86" y="248" type="curve" smooth="yes"/>
      <point x="109" y="248"/>
      <point x="126" y="263"/>
      <point x="126" y="282" type="curve" smooth="yes"/>
      <point x="126" y="286"/>
      <point x="108" y="330"/>
      <point x="108" y="329" type="curve" smooth="yes"/>
      <point x="108" y="359"/>
      <point x="115" y="380"/>
      <point x="170" y="380" type="curve" smooth="yes"/>
      <point x="227" y="380"/>
      <point x="279" y="350"/>
      <point x="279" y="308" type="curve" smooth="yes"/>
      <point x="279" y="280"/>
      <point x="279" y="95"/>
      <point x="279" y="75" type="curve"/>
      <point x="279" y="75"/>
      <point x="288" y="94"/>
      <point x="288" y="94" type="curve"/>
      <point x="306" y="37"/>
      <point x="373" y="-13"/>
      <point x="451" y="-13" type="curve" smooth="yes"/>
      <point x="516" y="-13"/>
      <point x="598" y="30"/>
      <point x="648" y="90" type="curve"/>
      <point x="628" y="100" type="line"/>
      <point x="601" y="68"/>
      <point x="546" y="45"/>
      <point x="496" y="45" type="curve" smooth="yes"/>
      <point x="413" y="45"/>
      <point x="355" y="119"/>
      <point x="355" y="225" type="curve" smooth="yes"/>
      <point x="355" y="337"/>
      <point x="401" y="406"/>
      <point x="465" y="406" type="curve" smooth="yes"/>
      <point x="503" y="406"/>
      <point x="531" y="382"/>
      <point x="533" y="333" type="curve" smooth="yes"/>
      <point x="533" y="319"/>
      <point x="523" y="305"/>
      <point x="510" y="301" type="curve" smooth="yes"/>
      <point x="123" y="189" type="line"/>
      <point x="76" y="178"/>
      <point x="42" y="130"/>
      <point x="42" y="71" type="curve" smooth="yes"/>
      <point x="42" y="21"/>
      <point x="91" y="-15"/>
    </contour>
  </outline>
</glyph>
<glyph name="OE" format="2">
  <advance width="1196"/>
  <unicode hex="0152"/>
  <anchor x="598" y="700" name="top"/>
  <anchor x="598" y="0" name="bottom"/>
  <outline>
    <contour>
      <point x="400" y="-11" type="curve" smooth="yes"/>
      <point x="606" y="-11"/>
      <point x="751" y="136"/>
      <point x="751" y="345" type="curve" smooth="yes"/>
      <point x="751" y="564"/>
      <point x="607" y="719"/>
      <point x="403" y="719" type="curve" smooth="yes"/>
      <point x="203" y="719"/>
      <point x="61" y="564"/>
      <point x="61" y="345" type="curve" smooth="yes"/>
      <point x="61" y="136"/>
      <point x="201" y="-11"/>
    </contour>
    <contour>
      <point x="417" y="9" type="curve" smooth="yes"/>
      <point x="284" y="9"/>
      <point x="190" y="171"/>
      <point x="190" y="385" type="curve" smooth="yes"/>
      <point x="190" y="563"/>
      <point x="275" y="699"/>
      <point x="396" y="699" type="curve" smooth="yes"/>
      <point x="528" y="699"/>
      <point x="622" y="530"/>
      <point x="622" y="306" type="curve" smooth="yes"/>
      <point x="622" y="138"/>
      <point x="537" y="9"/>
    </contour>
    <contour>
      <point x="959" y="200" type="curve"/>
      <point x="976" y="200" type="line"/>
      <point x="972" y="277"/>
      <point x="972" y="385"/>
      <point x="976" y="462" type="curve"/>
      <point x="958" y="462" type="line"/>
      <point x="958" y="399"/>
      <point x="932" y="354"/>
      <point x="895" y="354" type="curve" smooth="yes"/>
      <point x="686" y="354" type="line"/>
      <point x="695" y="304" type="line"/>
      <point x="758" y="304"/>
      <point x="880" y="304"/>
      <point x="905" y="304" type="curve" smooth="yes"/>
      <point x="937" y="304"/>
      <point x="959" y="261"/>
    </contour>
    <contour>
      <point x="561" y="49" type="curve"/>
      <point x="491" y="-1" type="line"/>
      <point x="1075" y="-1" type="line"/>
      <point x="1154" y="163" type="line"/>
      <point x="1139" y="178" type="line"/>
      <point x="1095" y="105"/>
      <point x="1021" y="49"/>
      <point x="974" y="49" type="curve" smooth="yes"/>
      <point x="962" y="49"/>
      <point x="611" y="49"/>
    </contour>
    <contour>
      <point x="492" y="700" type="curve"/>
      <point x="522" y="650" type="line"/>
      <point x="559" y="650"/>
      <point x="934" y="650"/>
      <point x="942" y="650" type="curve" smooth="yes"/>
      <point x="1003" y="650"/>
      <point x="1057" y="598"/>
      <point x="1057" y="531" type="curve"/>
      <point x="1075" y="531" type="line"/>
      <point x="1075" y="700" type="line"/>
      <point x="1008" y="700"/>
      <point x="543" y="700"/>
    </contour>
  </outline>
</glyph>
<glyph name="c_t" format="2">
  <advance width="776"/>
  <anchor x="194" y="425" name="top_1"/>
  <anchor x="582" y="425" name="top_2"/>
  <anchor x="194" y="0" name="bottom_1"/>
  <anchor x="582" y="0" name="bottom_2"/>
  <anchor x="388" y="0" name="caret_1"/>
  <outline>
    <contour>
      <point x="221" y="-12" type="curve" smooth="yes"/>
      <point x="283" y="-12"/>
      <point x="364" y="30"/>
      <point x="416" y="90" type="curve"/>
      <point x="396" y="100" type="line"/>
      <point x="364" y="67"/>
      <point x="313" y="44"/>
      <point x="272" y="44" type="curve" smooth="yes"/>
      <point x="178" y="44"/>
      <point x="112" y="118"/>
      <point x="112" y="223" type="curve" smooth="yes"/>
      <point x="112" y="323"/>
      <point x="162" y="409"/>
      <point x="232" y="409" type="curve" smooth="yes"/>
      <point x="315" y="409"/>
      <point x="292" y="330"/>
      <point x="337" y="330" type="curve" smooth="yes"/>
      <point x="368" y="330"/>
      <point x="390" y="345"/>
      <point x="390" y="366" type="curve" smooth="yes"/>
      <point x="390" y="408"/>
      <point x="345" y="437"/>
      <point x="281" y="437" type="curve" smooth="yes"/>
      <point x="136" y="437"/>
      <point x="33" y="328"/>
      <point x="33" y="182" type="curve" smooth="yes"/>
      <point x="33" y="63"/>
      <point x="111" y="-12"/>
    </contour>
    <contour>
      <point x="627" y="-12" type="curve" smooth="yes"/>
      <point x="690" y="-12"/>
      <point x="753" y="20"/>
      <point x="770" y="70" type="curve"/>
      <point x="750" y="80" type="line"/>
      <point x="728" y="53"/>
      <point x="692" y="34"/>
      <point x="662" y="34" type="curve" smooth="yes"/>
      <point x="619" y="34"/>
      <point x="588" y="78"/>
      <point x="588" y="125" type="curve" smooth="yes"/>
      <point x="588" y="377" type="line"/>
      <point x="746" y="377" type="line"/>
      <point x="746" y="425" type="line"/>
      <point x="592" y="425" type="line"/>
      <point x="592" y="492" type="line"/>
      <point x="578" y="504" type="line"/>
      <point x="540" y="453"/>
      <point x="487" y="408"/>
      <point x="449" y="395" type="curve"/>
      <point x="449" y="377" type="line"/>
      <point x="507" y="377" type="line"/>
      <point x="507" y="286"/>
      <point x="507" y="100"/>
      <point x="507" y="82" type="curve" smooth="yes"/>
      <point x="507" y="27"/>
      <point x="557" y="-12"/>
    </contour>
    <contour>
      <point x="329" y="364" type="curve"/>
      <point x="364" y="414" type="line"/>
      <point x="316" y="447"/>
      <point x="283" y="496"/>
      <point x="283" y="533" type="curve" smooth="yes"/>
      <point x="283" y="611"/>
      <point x="344" y="668"/>
      <point x="431" y="668" type="curve" smooth="yes"/>
      <point x="510" y="668"/>
      <point x="564" y="613"/>
      <point x="562" y="534" type="curve" smooth="yes"/>
      <point x="562" y="476"/>
      <point x="515" y="418"/>
      <point x="449" y="395" type="curve"/>
      <point x="592" y="425" type="line"/>
      <point x="594" y="534" type="line" smooth="yes"/>
      <point x="594" y="630"/>
      <point x="526" y="700"/>
      <point x="431" y="700" type="curve" smooth="yes"/>
      <point x="327" y="700"/>
      <point x="251" y="630"/>
      <point x="251" y="534" type="curve" smooth="yes"/>
      <point x="251" y="465"/>
      <point x="283" y="395"/>
    </contour>
  </outline>
</glyph>
<glyph name="f_f" format="2">
  <advance width="606"/>
  <anchor x="303" y="0" name="caret_1"/>
  <outline>
    <contour>
      <point x="10" y="0" type="line"/>
      <point x="266" y="0" type="line"/>
      <point x="266" y="18" type="line"/>
      <point x="219" y="18" type="line" smooth="yes"/>
      <point x="197" y="18"/>
      <point x="181" y="31"/>
      <point x="181" y="49" type="curve" smooth="yes"/>
      <point x="181" y="521" type="line" smooth="yes"/>
      <point x="181" y="635"/>
      <point x="204" y="736"/>
      <point x="250" y="736" type="curve" smooth="yes"/>
      <point x="359" y="736"/>
      <point x="427" y="670"/>
      <point x="430" y="577" type="curve"/>
      <point x="486" y="657" type="line"/>
      <point x="466" y="729"/>
      <point x="410" y="780"/>
      <point x="350" y="780" type="curve" smooth="yes"/>
      <point x="217" y="780"/>
      <point x="103" y="659"/>
      <point x="103" y="502" type="curve" smooth="yes"/>
      <point x="103" y="439"/>
      <point x="72" y="394"/>
      <point x="27" y="394" type="curve" smooth="yes"/>
      <point x="15" y="394" type="line"/>
      <point x="15" y="376" type="line"/>
      <point x="100" y="376" type="line"/>
      <point x="100" y="67" type="line" smooth="yes"/>
      <point x="100" y="38"/>
      <point x="81" y="18"/>
      <point x="55" y="18" type="curve" smooth="yes"/>
      <point x="10" y="18" type="line"/>
    </contour>
    <contour>
      <point x="170" y="376" type="line"/>
      <point x="403" y="376" type="line"/>
      <point x="403" y="425" type="line"/>
      <point x="170" y="425" type="line"/>
    </contour>
    <contour>
      <point x="307" y="0" type="line"/>
      <point x="563" y="0" type="line"/>
      <point x="563" y="18" type="line"/>
      <point x="516" y="18" type="line" smooth="yes"/>
      <point x="494" y="18"/>
      <point x="478" y="31"/>
      <point x="478" y="49" type="curve" smooth="yes"/>
      <point x="478" y="521" type="line" smooth="yes"/>
      <point x="478" y="594"/>
      <point x="502" y="678"/>
      <point x="530" y="702" type="curve" smooth="yes"/>
      <point x="544" y="714"/>
      <point x="565" y="726"/>
      <point x="587" y="726" type="curve" smooth="yes"/>
      <point x="639" y="726"/>
      <point x="618" y="650"/>
      <point x="666" y="650" type="curve" smooth="yes"/>
      <point x="691" y="650"/>
      <point x="742" y="676"/>
      <point x="742" y="713" type="curve" smooth="yes"/>
      <point x="742" y="752"/>
      <point x="706" y="779"/>
      <point x="654" y="779" type="curve" smooth="yes"/>
      <point x="613" y="779"/>
      <point x="545" y="746"/>
      <point x="490" y="699" type="curve" smooth="yes"/>
      <point x="437" y="655"/>
      <point x="400" y="572"/>
      <point x="400" y="502" type="curve" smooth="yes"/>
      <point x="400" y="439"/>
      <point x="369" y="394"/>
      <point x="324" y="394" type="curve" smooth="yes"/>
      <point x="312" y="394" type="line"/>
      <point x="312" y="376" type="line"/>
      <point x="397" y="376" type="line"/>
      <point x="397" y="67" type="line" smooth="yes"/>
      <point x="397" y="38"/>
      <point x="378" y="18"/>
      <point x="352" y="18" type="curve" smooth="yes"/>
      <point x="307" y="18" type="line"/>
    </contour>
    <contour>
      <point x="464" y="376" type="line"/>
      <point x="597" y="376" type="line"/>
      <point x="597" y="425" type="line"/>
      <point x="464" y="425" type="line"/>
    </contour>
  </outline>
</glyph>
<glyph name="f_i" format="2">
  <advance width="568"/>
  <anchor x="142" y="700" name="top_1"/>
  <anchor x="426" y="700" name="top_2"/>
  <anchor x="142" y="0" name="bottom_1"/>
  <anchor x="426" y="0" name="bottom_2"/>
  <anchor x="284" y="0" name="caret_1"/>
  <outline>
    <contour>
      <point x="10" y="0" type="line"/>
      <point x="266" y="0" type="line"/>
      <point x="266" y="18" type="line"/>
      <point x="219" y="18" type="line" smooth="yes"/>
      <point x="197" y="18"/>
      <point x="181" y="31"/>
      <point x="181" y="49" type="curve" smooth="yes"/>
      <point x="181" y="521" type="line" smooth="yes"/>
      <point x="181" y="635"/>
      <point x="214" y="736"/>
      <point x="260" y="736" type="curve" smooth="yes"/>
      <point x="294" y="736"/>
      <point x="348" y="691"/>
      <point x="361" y="641" type="curve"/>
      <point x="457" y="641" type="line"/>
      <point x="448" y="722"/>
      <point x="394" y="780"/>
      <point x="340" y="780" type="curve" smooth="yes"/>
      <point x="207" y="780"/>
      <point x="103" y="659"/>
      <point x="103" y="502" type="curve" smooth="yes"/>
      <point x="103" y="439"/>
      <point x="72" y="394"/>
      <point x="27" y="394" type="curve" smooth="yes"/>
      <point x="15" y="394" type="line"/>
      <point x="15" y="376" type="line"/>
      <point x="100" y="376" type="line"/>
      <point x="100" y="67" type="line" smooth="yes"/>
      <point x="100" y="38"/>
      <point x="81" y="18"/>
      <point x="55" y="18" type="curve" smooth="yes"/>
      <point x="10" y="18" type="line"/>
    </contour>
    <contour>
      <point x="160" y="376" type="line"/>
      <point x="344" y="376" type="line"/>
      <point x="344" y="425" type="line"/>
      <point x="160" y="425" type="line"/>
    </contour>
    <contour>
      <point x="346" y="0" type="line"/>
      <point x="554" y="0" type="line"/>
      <point x="554" y="18" type="line"/>
      <point x="509" y="18" type="line" smooth="yes"/>
      <point x="493" y="18"/>
      <point x="482" y="30"/>
      <point x="482" y="47" type="curve" smooth="yes"/>
      <point x="482" y="342" type="line"/>
      <point x="485" y="425" type="line"/>
      <point x="476" y="441" type="line"/>
      <point x="455" y="433"/>
      <point x="400" y="426"/>
      <point x="344" y="425" type="curve"/>
      <point x="344" y="376" type="line"/>
      <point x="377" y="376"/>
      <point x="401" y="354"/>
      <point x="401" y="322" type="curve" smooth="yes"/>
      <point x="401" y="43" type="line" smooth="yes"/>
      <point x="401" y="28"/>
      <point x="386" y="18"/>
      <point x="365" y="18" type="curve" smooth="yes"/>
      <point x="346" y="18" type="line"/>
    </contour>
    <contour>
      <point x="409" y="596" type="curve" smooth="yes"/>
      <point x="437" y="596"/>
      <point x="457" y="615"/>
      <point x="457" y="641" type="curve" smooth="yes"/>
      <point x="457" y="667"/>
      <point x="437" y="686"/>
      <point x="409" y="686" type="curve" smooth="yes"/>
      <point x="381" y="686"/>
      <point x="361" y="667"/>
      <point x="361" y="641" type="curve" smooth="yes"/>
      <point x="361" y="615"/>
      <point x="381" y="596"/>
    </contour>
  </outline>
</glyph>
<glyph name="s.hist" format="2">
  <advance width="309"/>
  <anchor x="155" y="425" name="top"/>
  <anchor x="155" y="0" name="bottom"/>
  <outline>
    <contour>
      <point x="1" y="0" type="line"/>
      <point x="257" y="0" type="line"/>
      <point x="257" y="18" type="line"/>
      <point x="248" y="18"/>
      <point x="247" y="18"/>
      <point x="210" y="18" type="curve" smooth="yes"/>
      <point x="188" y="18"/>
      <point x="169" y="31"/>
      <point x="169" y="49" type="curve" smooth="yes"/>
      <point x="169" y="80"/>
      <point x="169" y="487"/>
      <point x="169" y="521" type="curve" smooth="yes"/>
      <point x="169" y="594"/>
      <point x="196" y="678"/>
      <point x="224" y="702" type="curve" smooth="yes"/>
      <point x="238" y="714"/>
      <point x="259" y="726"/>
      <point x="281" y="726" type="curve" smooth="yes"/>
      <point x="333" y="726"/>
      <point x="312" y="650"/>
      <point x="360" y="650" type="curve" smooth="yes"/>
      <point x="385" y="650"/>
      <point x="436" y="676"/>
      <point x="436" y="713" type="curve" smooth="yes"/>
      <point x="436" y="752"/>
      <point x="400" y="779"/>
      <point x="348" y="779" type="curve" smooth="yes"/>
      <point x="307" y="779"/>
      <point x="239" y="746"/>
      <point x="184" y="699" type="curve" smooth="yes"/>
      <point x="131" y="655"/>
      <point x="94" y="572"/>
      <point x="94" y="502" type="curve" smooth="yes"/>
      <point x="94" y="439"/>
      <point x="63" y="394"/>
      <point x="18" y="394" type="curve" smooth="yes"/>
      <point x="6" y="394" type="line"/>
      <point x="6" y="376" type="line"/>
      <point x="91" y="376" type="line"/>
      <point x="96" y="276"/>
      <point x="96" y="167"/>
      <point x="91" y="67" type="curve" smooth="yes"/>
      <point x="91" y="38"/>
      <point x="72" y="18"/>
      <point x="46" y="18" type="curve" smooth="yes"/>
      <point x="1" y="18" type="line"/>
    </contour>
  </outline>
</glyph>
<glyph name="s_i.hist" format="2">
  <advance width="557"/>
  <anchor x="139" y="425" name="top_1"/>
  <anchor x="418" y="425" name="top_2"/>
  <anchor x="139" y="0" name="bottom_1"/>
  <anchor x="418" y="0" name="bottom_2"/>
  <anchor x="278.5" y="0" name="caret_1"/>
  <outline>
    <contour>
      <point x="10" y="0" type="line"/>
      <point x="266" y="0" type="line"/>
      <point x="266" y="18" type="line"/>
      <point x="219" y="18" type="line" smooth="yes"/>
      <point x="197" y="18"/>
      <point x="181" y="31"/>
      <point x="181" y="49" type="curve" smooth="yes"/>
      <point x="181" y="521" type="line" smooth="yes"/>
      <point x="181" y="635"/>
      <point x="214" y="736"/>
      <point x="260" y="736" type="curve" smooth="yes"/>
      <point x="317" y="736"/>
      <point x="346" y="691"/>
      <point x="359" y="641" type="curve"/>
      <point x="455" y="641" type="line"/>
      <point x="446" y="722"/>
      <point x="406" y="780"/>
      <point x="330" y="780" type="curve" smooth="yes"/>
      <point x="197" y="780"/>
      <point x="103" y="659"/>
      <point x="103" y="502" type="curve" smooth="yes"/>
      <point x="103" y="439"/>
      <point x="72" y="394"/>
      <point x="27" y="394" type="curve" smooth="yes"/>
      <point x="15" y="394" type="line"/>
      <point x="15" y="376" type="line"/>
      <point x="100" y="376" type="line"/>
      <point x="100" y="67" type="line" smooth="yes"/>
      <point x="100" y="38"/>
      <point x="81" y="18"/>
      <point x="55" y="18" type="curve" smooth="yes"/>
      <point x="10" y="18" type="line"/>
    </contour>
    <contour>
      <point x="335" y="0" type="line"/>
      <point x="543" y="0" type="line"/>
      <point x="543" y="18" type="line"/>
      <point x="498" y="18" type="line" smooth="yes"/>
      <point x="482" y="18"/>
      <point x="471" y="30"/>
      <point x="471" y="47" type="curve" smooth="yes"/>
      <point x="471" y="342" type="line"/>
      <point x="474" y="425" type="line"/>
      <point x="465" y="441" type="line"/>
      <point x="428" y="418"/>
      <point x="374" y="395"/>
      <point x="333" y="386" type="curve"/>
      <point x="333" y="378" type="line"/>
      <point x="366" y="378"/>
      <point x="390" y="356"/>
      <point x="390" y="324" type="curve" smooth="yes"/>
      <point x="390" y="43" type="line" smooth="yes"/>
      <point x="390" y="28"/>
      <point x="375" y="18"/>
      <point x="354" y="18" type="curve" smooth="yes"/>
      <point x="335" y="18" type="line"/>
    </contour>
    <contour>
      <point x="407" y="596" type="curve" smooth="yes"/>
      <point x="435" y="596"/>
      <point x="455" y="615"/>
      <point x="455" y="641" type="curve" smooth="yes"/>
      <point x="455" y="667"/>
      <point x="435" y="686"/>
      <point x="407" y="686" type="curve" smooth="yes"/>
      <point x="379" y="686"/>
      <point x="359" y="667"/>
      <point x="359" y="641" type="curve" smooth="yes"/>
      <point x="359" y="615"/>
      <point x="379" y="596"/>
    </contour>
  </outline>
</glyph>
<glyph name="s_t" format="2">
  <advance width="727"/>
  <anchor x="363.5" y="0" name="caret_1"/>
  <outline>
    <contour>
      <point x="578" y="-12" type="curve" smooth="yes"/>
      <point x="647" y="-12"/>
      <point x="705" y="23"/>
      <point x="721" y="70" type="curve"/>
      <point x="701" y="80" type="line"/>
      <point x="679" y="53"/>
      <point x="643" y="34"/>
      <point x="613" y="34" type="curve" smooth="yes"/>
      <point x="570" y="34"/>
      <point x="539" y="73"/>
      <point x="539" y="125" type="curve" smooth="yes"/>
      <point x="539" y="377" type="line"/>
      <point x="697" y="377" type="line"/>
      <point x="697" y="425" type="line"/>
      <point x="543" y="425" type="line"/>
      <point x="543" y="492" type="line"/>
      <point x="529" y="504" type="line"/>
      <point x="491" y="453"/>
      <point x="438" y="408"/>
      <point x="400" y="395" type="curve"/>
      <point x="400" y="377" type="line"/>
      <point x="458" y="377" type="line"/>
      <point x="458" y="82" type="line" smooth="yes"/>
      <point x="458" y="27"/>
      <point x="508" y="-12"/>
    </contour>
    <contour>
      <point x="153" y="-15" type="curve" smooth="yes"/>
      <point x="248" y="-15"/>
      <point x="316" y="53"/>
      <point x="316" y="149" type="curve" smooth="yes"/>
      <point x="316" y="279"/>
      <point x="83" y="246"/>
      <point x="83" y="352" type="curve" smooth="yes"/>
      <point x="83" y="387"/>
      <point x="121" y="412"/>
      <point x="175" y="412" type="curve" smooth="yes"/>
      <point x="220" y="412"/>
      <point x="254" y="389"/>
      <point x="254" y="356" type="curve" smooth="yes"/>
      <point x="254" y="350"/>
      <point x="252" y="341"/>
      <point x="252" y="336" type="curve" smooth="yes"/>
      <point x="252" y="333"/>
      <point x="267" y="332"/>
      <point x="288" y="332" type="curve" smooth="yes"/>
      <point x="297" y="332"/>
      <point x="304" y="342"/>
      <point x="304" y="355" type="curve" smooth="yes"/>
      <point x="304" y="405"/>
      <point x="258" y="441"/>
      <point x="194" y="441" type="curve" smooth="yes"/>
      <point x="100" y="441"/>
      <point x="34" y="380"/>
      <point x="34" y="294" type="curve" smooth="yes"/>
      <point x="34" y="151"/>
      <point x="260" y="192"/>
      <point x="260" y="102" type="curve" smooth="yes"/>
      <point x="260" y="51"/>
      <point x="224" y="14"/>
      <point x="172" y="14" type="curve" smooth="yes"/>
      <point x="118" y="14"/>
      <point x="79" y="44"/>
      <point x="79" y="87" type="curve" smooth="yes"/>
      <point x="79" y="94"/>
      <point x="81" y="98"/>
      <point x="81" y="107" type="curve" smooth="yes"/>
      <point x="81" y="114"/>
      <point x="67" y="119"/>
      <point x="47" y="119" type="curve" smooth="yes"/>
      <point x="39" y="119"/>
      <point x="33" y="108"/>
      <point x="33" y="93" type="curve" smooth="yes"/>
      <point x="33" y="30"/>
      <point x="83" y="-15"/>
    </contour>
    <contour>
      <point x="400" y="395" type="curve"/>
      <point x="543" y="425" type="line"/>
      <point x="545" y="534" type="line" smooth="yes"/>
      <point x="545" y="630"/>
      <point x="469" y="700"/>
      <point x="362" y="700" type="curve" smooth="yes"/>
      <point x="246" y="700"/>
      <point x="162" y="630"/>
      <point x="162" y="534" type="curve" smooth="yes"/>
      <point x="162" y="501"/>
      <point x="172" y="455"/>
      <point x="188" y="424" type="curve"/>
      <point x="275" y="414" type="line"/>
      <point x="227" y="447"/>
      <point x="194" y="496"/>
      <point x="194" y="533" type="curve" smooth="yes"/>
      <point x="194" y="611"/>
      <point x="263" y="668"/>
      <point x="362" y="668" type="curve" smooth="yes"/>
      <point x="453" y="668"/>
      <point x="515" y="613"/>
      <point x="513" y="534" type="curve" smooth="yes"/>
      <point x="513" y="476"/>
      <point x="466" y="418"/>
    </contour>
  </outline>
</glyph>
<glyph name="s_t.hist" format="2">
  <advance width="647"/>
  <anchor x="162" y="425" name="top_1"/>
  <anchor x="485" y="425" name="top_2"/>
  <anchor x="162" y="0" name="bottom_1"/>
  <anchor x="485" y="0" name="bottom_2"/>
  <anchor x="323.5" y="0" name="caret_1"/>
  <outline>
    <contour>
      <point x="7" y="0" type="line"/>
      <point x="263" y="0" type="line"/>
      <point x="263" y="18" type="line"/>
      <point x="216" y="18" type="line" smooth="yes"/>
      <point x="194" y="18"/>
      <point x="178" y="31"/>
      <point x="178" y="49" type="curve" smooth="yes"/>
      <point x="178" y="521" type="line" smooth="yes"/>
      <point x="178" y="635"/>
      <point x="211" y="736"/>
      <point x="257" y="736" type="curve" smooth="yes"/>
      <point x="321" y="736"/>
      <point x="378" y="670"/>
      <point x="378" y="592" type="curve" smooth="yes"/>
      <point x="378" y="377" type="line"/>
      <point x="463" y="492" type="line"/>
      <point x="463" y="611" type="line" smooth="yes"/>
      <point x="463" y="710"/>
      <point x="400" y="780"/>
      <point x="337" y="780" type="curve" smooth="yes"/>
      <point x="204" y="780"/>
      <point x="100" y="659"/>
      <point x="100" y="502" type="curve" smooth="yes"/>
      <point x="100" y="439"/>
      <point x="69" y="394"/>
      <point x="24" y="394" type="curve" smooth="yes"/>
      <point x="12" y="394" type="line"/>
      <point x="12" y="376" type="line"/>
      <point x="97" y="376" type="line"/>
      <point x="97" y="67" type="line" smooth="yes"/>
      <point x="97" y="38"/>
      <point x="78" y="18"/>
      <point x="52" y="18" type="curve" smooth="yes"/>
      <point x="7" y="18" type="line"/>
    </contour>
    <contour>
      <point x="498" y="-12" type="curve" smooth="yes"/>
      <point x="561" y="-12"/>
      <point x="620" y="24"/>
      <point x="641" y="74" type="curve"/>
      <point x="621" y="80" type="line"/>
      <point x="599" y="53"/>
      <point x="563" y="34"/>
      <point x="533" y="34" type="curve" smooth="yes"/>
      <point x="490" y="34"/>
      <point x="459" y="78"/>
      <point x="459" y="125" type="curve" smooth="yes"/>
      <point x="459" y="377" type="line"/>
      <point x="617" y="377" type="line"/>
      <point x="617" y="425" type="line"/>
      <point x="463" y="425" type="line"/>
      <point x="463" y="492" type="line"/>
      <point x="449" y="504" type="line"/>
      <point x="411" y="453"/>
      <point x="358" y="408"/>
      <point x="320" y="395" type="curve"/>
      <point x="320" y="377" type="line"/>
      <point x="378" y="377" type="line"/>
      <point x="378" y="82" type="line" smooth="yes"/>
      <point x="378" y="27"/>
      <point x="428" y="-12"/>
    </contour>
  </outline>
</glyph>
